<svg width="350" height="268" viewBox="0 0 350 268" fill="none" xmlns="http://www.w3.org/2000/svg">
<g clip-path="url(#clip0_3311_1177)">
<path opacity="0.1" d="M116.361 267.87C133.405 267.87 147.223 265.793 147.223 263.231C147.223 260.669 133.405 258.593 116.361 258.593C99.3158 258.593 85.4983 260.669 85.4983 263.231C85.4983 265.793 99.3158 267.87 116.361 267.87Z" fill="#68A4F4"/>
<path opacity="0.1" d="M284.123 268C305.392 268 322.634 265.923 322.634 263.361C322.634 260.8 305.392 258.723 284.123 258.723C262.854 258.723 245.612 260.8 245.612 263.361C245.612 265.923 262.854 268 284.123 268Z" fill="#68A4F4"/>
<path opacity="0.1" d="M4.38365 136.241H36.5286V177.241H6.73696C6.65778 177.662 6.58176 178.086 6.49941 178.51H36.5286V211.575C36.4748 211.561 36.4273 211.543 36.3766 211.525C35.5278 211.211 34.6853 210.879 33.8428 210.523L33.3043 210.295C32.4597 209.922 31.6151 209.526 30.7705 209.109C30.4759 208.964 30.1814 208.813 29.89 208.659C25.201 206.201 20.9414 203.086 17.2588 199.423C17.1511 199.325 17.0497 199.222 16.942 199.127C16.4289 198.605 15.9253 198.078 15.4376 197.538L14.8991 196.945C14.3227 196.284 13.7652 195.606 13.2236 194.918C13.1444 194.817 13.0684 194.716 12.9861 194.622C10.7833 191.764 8.9544 188.669 7.53829 185.404C7.49395 185.306 7.45594 185.199 7.41477 185.107C6.97979 184.06 6.59443 183.003 6.2587 181.936C6.113 181.488 5.97364 181.047 5.85328 180.581C5.80894 180.445 5.77093 180.312 5.73609 180.178C3.93706 173.607 3.72485 166.781 3.72485 160.003C3.72485 159.211 3.72485 158.417 3.72485 157.632C3.72485 154.89 3.75969 152.13 3.81037 149.374C3.81037 148.66 3.84204 147.948 3.85788 147.231C3.90222 145.411 3.96557 143.591 4.04792 141.771C4.06692 141.265 4.09226 140.761 4.12077 140.257C4.12077 139.966 4.1366 139.676 4.16828 139.385C4.24429 138.33 4.30764 137.284 4.38365 136.241Z" fill="#68A4F4"/>
<path opacity="0.1" d="M36.5286 90.5899H18.8962C21.7625 86.3917 24.8942 82.3575 28.2746 78.5089C30.894 75.4975 33.6591 72.5632 36.5286 69.7356V90.5899Z" fill="#68A4F4"/>
<path opacity="0.1" d="M36.5285 91.8586V134.972H4.48486C4.48486 134.848 4.50703 134.72 4.51654 134.596C4.54504 134.255 4.57355 133.914 4.60522 133.576C4.64006 133.179 4.67807 132.779 4.71924 132.391C4.76042 132.002 4.80476 131.528 4.85227 131.098C4.89978 130.669 4.94412 130.233 4.99797 129.803C5.05181 129.373 5.09932 128.944 5.15633 128.517C5.21334 128.09 5.26402 127.657 5.3242 127.23C5.37171 126.875 5.42238 126.522 5.47306 126.166C5.54591 125.665 5.62193 125.162 5.70428 124.664C5.70428 124.59 5.72645 124.512 5.73912 124.441C6.31721 120.796 7.1049 117.183 8.09876 113.617C9.13909 109.876 10.4676 106.211 12.0737 102.65C13.7808 98.9252 15.7795 95.3231 18.0536 91.8735L36.5285 91.8586Z" fill="#68A4F4"/>
<path opacity="0.1" d="M44.2029 136.238V177.241H112.861V136.238H44.2029ZM44.2029 178.507V213.718C44.5956 213.795 44.9852 213.869 45.3716 213.932C45.8974 214.026 46.42 214.112 46.9553 214.187C47.0566 214.201 47.1611 214.216 47.272 214.225C47.481 214.258 47.6964 214.284 47.9055 214.311C48.4344 214.379 48.9602 214.435 49.4891 214.48C49.7393 214.504 49.9927 214.524 50.2461 214.542L50.8574 214.587C51.19 214.61 51.5194 214.628 51.8456 214.637C52.0483 214.637 52.251 214.655 52.46 214.661C52.6184 214.661 52.7768 214.661 52.9415 214.661C53.1062 214.661 53.3406 214.661 53.5401 214.661C53.8125 214.661 54.0849 214.661 54.3541 214.661H54.7183C54.9907 214.661 55.2631 214.661 55.5323 214.637H55.5513C55.7382 214.637 55.9282 214.637 56.1183 214.613C56.171 214.616 56.2239 214.616 56.2767 214.613C56.435 214.613 56.5934 214.613 56.7454 214.593H56.8563L57.9173 214.516C58.2657 214.486 58.6173 214.447 58.972 214.412L59.6942 214.332C62.6321 213.947 65.5374 213.368 68.3884 212.601C74.7927 210.929 81.0577 208.591 87.4588 206.877C95.735 204.669 104.879 203.584 112.876 206.285V178.507H44.2029ZM112.861 90.5899V36.0029C105.344 35.9267 97.8473 36.7494 90.5533 38.4511C73.1679 42.5384 57.5689 51.4036 44.2029 62.7258V90.587H47.6489V91.8526H44.2029V134.972H112.861V91.8555H61.7973V90.5899H112.861ZM201.048 72.1512C196.747 72.0089 192.471 70.7344 188.604 68.7664C181.208 65.0022 175.301 59.1899 168.7 54.2845C154.986 44.0678 137.977 37.9028 120.529 36.3734V90.5899H218.541L218.785 90.3498L201.048 72.1512ZM209.977 70.6692L219.444 80.391V68.1202C216.273 68.4878 213.495 69.3621 209.989 70.6574L209.977 70.6692ZM219.444 222.462V178.507H199.271C199.217 178.32 199.163 178.13 199.1 177.94C199.16 178.13 199.211 178.32 199.268 178.507H120.541V210.295C121.289 210.814 122.027 211.359 122.758 211.913C123.547 212.506 124.326 213.131 125.109 213.745L125.897 214.355C126.274 214.652 126.654 214.948 127.037 215.227C127.798 215.804 128.565 216.373 129.34 216.934C129.723 217.23 130.116 217.497 130.506 217.776C136.69 222.201 143.215 226.194 150.026 229.724C151.552 230.514 153.093 231.286 154.647 232.038C155.683 232.533 156.725 233.025 157.77 233.503C159.341 234.22 160.924 234.911 162.521 235.577C177.238 241.76 192.801 246.002 208.763 248.183C212.309 248.673 215.868 249.058 219.44 249.339V222.459H219.757L219.444 222.462ZM120.541 91.8555V134.972H219.456V91.8555H120.541ZM120.541 136.238V177.241H219.456V136.238H120.541ZM227.134 68.0669V81.7544L239.217 69.3473C235.214 68.7427 231.186 68.3109 227.134 68.0521V68.0669ZM227.134 136.252V177.241H323.341V136.238L227.134 136.252ZM322.989 225.716L323.328 178.507H227.134V249.81C233.331 250.054 239.537 249.985 245.726 249.603H245.834C248.79 249.429 251.732 249.176 254.661 248.844H254.727C270.352 247.142 285.63 243.327 300.083 237.519L322.989 225.716ZM341.892 142.99C341.531 142.192 341.154 141.401 340.77 140.618C340.055 139.136 339.298 137.696 338.519 136.255H331.012V177.241H349.991C349.981 165.634 346.842 153.778 341.901 142.975L341.892 142.99ZM331.012 178.521V219.127C336.358 214.332 340.875 208.845 344.128 202.574C348.039 195.022 349.829 186.844 349.975 178.515L331.012 178.521ZM331.012 124.305V134.975H337.815C335.757 131.302 333.489 127.735 331.022 124.29L331.012 124.305ZM265.766 76.111C265.265 75.9332 264.765 75.7524 264.261 75.5775C258.95 73.742 253.522 72.2157 248.01 71.0071L229.519 89.9971L229.164 90.3498L229.402 90.5929H295.212C286.046 84.6888 276.165 79.8226 265.775 76.0962L265.766 76.111ZM297.141 91.8703H228.483L227.134 93.0263V134.972H238.961H238.98H323.353V114.654C315.721 106.016 306.912 98.3512 297.15 91.8555L297.141 91.8703Z" fill="#68A4F4"/>
<path opacity="0.1" d="M36.5285 113.605V134.972H4.48486C4.48486 134.848 4.50703 134.72 4.51654 134.596C4.54504 134.255 4.57355 133.914 4.60522 133.576C4.64006 133.179 4.67807 132.779 4.71924 132.39C4.76042 132.002 4.80476 131.528 4.85227 131.098C4.89978 130.668 4.94412 130.233 4.99797 129.803C5.05181 129.373 5.09932 128.943 5.15633 128.517C5.21334 128.09 5.26402 127.657 5.3242 127.23C5.37171 126.875 5.42238 126.522 5.47306 126.166C5.54591 125.665 5.62193 125.161 5.70428 124.663C5.70428 124.589 5.72645 124.512 5.73912 124.441C6.31721 120.796 7.1049 117.183 8.09876 113.617L36.5285 113.605Z" fill="#68A4F4"/>
<path opacity="0.1" d="M4.38365 136.241H36.5286V177.241H6.73696C6.65778 177.662 6.58176 178.086 6.49941 178.51H36.5286V211.575C36.4748 211.561 36.4273 211.543 36.3766 211.525C35.5278 211.211 34.6853 210.879 33.8428 210.523L33.3043 210.295C32.4597 209.922 31.6151 209.526 30.7705 209.109C30.4759 208.964 30.1814 208.813 29.89 208.659C25.201 206.201 20.9414 203.086 17.2588 199.423C17.1511 199.325 17.0497 199.222 16.942 199.127C16.4289 198.605 15.9253 198.078 15.4376 197.538L14.8991 196.945C14.3227 196.284 13.7652 195.606 13.2236 194.918C13.1444 194.817 13.0684 194.716 12.9861 194.622C10.7833 191.764 8.9544 188.669 7.53829 185.404C7.49395 185.306 7.45594 185.199 7.41477 185.107C6.97979 184.06 6.59443 183.003 6.2587 181.936C6.113 181.488 5.97364 181.047 5.85328 180.581C5.80894 180.445 5.77093 180.312 5.73609 180.178C3.93706 173.607 3.72485 166.781 3.72485 160.003C3.72485 159.211 3.72485 158.417 3.72485 157.632C3.72485 154.89 3.75969 152.13 3.81037 149.374C3.81037 148.66 3.84204 147.948 3.85788 147.231C3.90222 145.411 3.96557 143.591 4.04792 141.771C4.06692 141.265 4.09226 140.761 4.12077 140.257C4.12077 139.966 4.1366 139.676 4.16828 139.385C4.24429 138.33 4.30764 137.284 4.38365 136.241Z" fill="#68A4F4"/>
<path opacity="0.1" d="M68.3726 98.0296V134.972H44.2029V98.0296H47.6489V85.5217H61.7941V98.0296H68.3726Z" fill="#68A4F4"/>
<path opacity="0.1" d="M68.3726 136.238H44.2061V177.238H68.3726V136.238Z" fill="#68A4F4"/>
<path opacity="0.1" d="M44.2029 178.51H68.3726V212.595C65.5215 213.362 62.6162 213.939 59.6783 214.323L58.9562 214.406C58.6015 214.444 58.2499 214.477 57.9015 214.51C57.5531 214.542 57.192 214.566 56.8404 214.587H56.7296C56.5775 214.587 56.4128 214.604 56.264 214.607H56.1025C55.9124 214.607 55.7224 214.625 55.5323 214.631C55.2631 214.646 54.9939 214.649 54.7183 214.652C54.6011 214.652 54.4903 214.652 54.3731 214.652C54.1007 214.652 53.8315 214.652 53.5591 214.652H52.9605C52.7989 214.652 52.6438 214.652 52.4759 214.652L51.8646 214.631C51.5479 214.631 51.2058 214.599 50.8764 214.578L50.2683 214.536L49.5113 214.471C48.9792 214.427 48.4502 214.37 47.9276 214.302L47.2942 214.219L46.9774 214.178C46.4485 214.101 45.9259 214.018 45.3938 213.923C45.0042 213.861 44.6178 213.783 44.225 213.709L44.2029 178.51Z" fill="#68A4F4"/>
<path opacity="0.1" d="M219.456 93.6665H199.528V134.969H219.456V93.6665Z" fill="#68A4F4"/>
<path opacity="0.1" d="M219.459 136.238V177.241H120.541V159.555H173.229V169.988H199.528V136.238H219.459Z" fill="#68A4F4"/>
<path opacity="0.1" d="M219.773 222.471H219.456V249.369C215.888 249.086 212.33 248.702 208.782 248.216C192.812 246.028 177.243 241.776 162.521 235.583C158.27 233.793 154.106 231.839 150.029 229.721C143.218 226.19 136.693 222.196 130.506 217.773C128.952 216.658 127.417 215.518 125.904 214.352C124.855 213.543 123.813 212.713 122.758 211.907C122.027 211.353 121.289 210.808 120.541 210.286V178.509H199.265C199.211 178.32 199.157 178.13 199.1 177.943C199.16 178.13 199.217 178.32 199.271 178.509H219.456V222.453C219.564 222.456 219.668 222.465 219.773 222.471Z" fill="#68A4F4"/>
<path opacity="0.1" d="M271.432 90.5899H258.446V86.8139H264.267V75.5657C264.772 75.7376 265.275 75.9144 265.775 76.0962V86.8139H271.432V90.5899Z" fill="#68A4F4"/>
<path opacity="0.1" d="M302.718 134.972H238.967C238.967 134.972 238.967 134.972 238.989 134.987L238.961 134.972H227.134V93.6696H230.485V124.198H245.799V106.118H258.449V91.8586H271.435V106.13H284.085V124.21H302.718V134.972Z" fill="#68A4F4"/>
<path opacity="0.1" d="M227.134 136.238V177.241H302.718V136.238H227.134ZM323.236 225.506L323.341 193.051H302.718V178.527H227.134V249.81C233.331 250.054 239.537 249.985 245.726 249.603H245.834C248.79 249.429 251.732 249.176 254.661 248.844H254.727C270.352 247.142 285.63 243.328 300.083 237.519" fill="#68A4F4"/>
<path opacity="0.1" d="M332.355 178.51H349.987C349.832 186.835 348.046 195.013 344.137 202.565C340.884 208.84 336.365 214.326 331.025 219.119V193.036H332.355V178.51Z" fill="#68A4F4"/>
<path opacity="0.1" d="M349.997 177.241H332.355V142.975H341.901C346.842 153.778 349.981 165.634 349.997 177.241Z" fill="#68A4F4"/>
<path opacity="0.1" d="M219.459 105.149H208.782V118.098H219.459V105.149Z" fill="#68A4F4"/>
<path opacity="0.1" d="M219.459 131.99H208.782V134.972H219.459V131.99Z" fill="#68A4F4"/>
<path opacity="0.1" d="M219.459 136.238H208.782V144.937H219.459V136.238Z" fill="#68A4F4"/>
<path opacity="0.1" d="M219.459 158.832H208.782V171.781H219.459V158.832Z" fill="#68A4F4"/>
<path opacity="0.1" d="M219.459 185.673H208.782V198.623H219.459V185.673Z" fill="#68A4F4"/>
<path opacity="0.1" d="M219.456 222.453C219.564 222.453 219.669 222.453 219.773 222.471H219.456V225.479H208.782V212.515H219.456V222.453Z" fill="#68A4F4"/>
<path opacity="0.1" d="M219.456 239.351V249.354C215.888 249.071 212.33 248.687 208.782 248.201V239.351H219.456Z" fill="#68A4F4"/>
<path opacity="0.1" d="M166.299 176.29H120.541V177.241H166.299V176.29Z" fill="#68A4F4"/>
<path opacity="0.1" d="M166.299 178.507H120.541V182.152H166.299V178.507Z" fill="#68A4F4"/>
<path opacity="0.1" d="M166.299 194.103H120.541V199.965H166.299V194.103Z" fill="#68A4F4"/>
<path opacity="0.1" d="M166.296 211.916V217.779H130.506C128.952 216.668 127.417 215.528 125.901 214.359C124.852 213.549 123.813 212.719 122.755 211.916H166.296Z" fill="#68A4F4"/>
<path opacity="0.1" d="M166.296 229.727V235.583H162.518C158.271 233.791 154.109 231.836 150.029 229.718L166.296 229.727Z" fill="#68A4F4"/>
<path opacity="0.1" d="M254.737 140.212H245.729V148.642H254.737V140.212Z" fill="#68A4F4"/>
<path opacity="0.1" d="M59.7004 100.937H50.6926V109.366H59.7004V100.937Z" fill="#68A4F4"/>
<path opacity="0.1" d="M59.7004 120.517H50.6926V128.946H59.7004V120.517Z" fill="#68A4F4"/>
<path opacity="0.1" d="M59.7004 140.097H50.6926V148.526H59.7004V140.097Z" fill="#68A4F4"/>
<path opacity="0.1" d="M59.7004 159.674H50.6926V168.103H59.7004V159.674Z" fill="#68A4F4"/>
<path opacity="0.1" d="M59.7004 179.253H50.6926V187.683H59.7004V179.253Z" fill="#68A4F4"/>
<path opacity="0.1" d="M59.7004 198.833H50.6926V207.263H59.7004V198.833Z" fill="#68A4F4"/>
<path opacity="0.1" d="M289.124 140.212H280.116V148.642H289.124V140.212Z" fill="#68A4F4"/>
<path opacity="0.1" d="M254.737 161.004H245.729V169.434H254.737V161.004Z" fill="#68A4F4"/>
<path opacity="0.1" d="M289.124 161.004H280.116V169.434H289.124V161.004Z" fill="#68A4F4"/>
<path opacity="0.1" d="M254.737 181.794H245.729V190.223H254.737V181.794Z" fill="#68A4F4"/>
<path opacity="0.1" d="M289.124 181.794H280.116V190.223H289.124V181.794Z" fill="#68A4F4"/>
<path opacity="0.1" d="M254.737 202.586H245.729V211.015H254.737V202.586Z" fill="#68A4F4"/>
<path opacity="0.1" d="M289.124 202.586H280.116V211.015H289.124V202.586Z" fill="#68A4F4"/>
<path opacity="0.1" d="M254.737 223.378H245.729V231.807H254.737V223.378Z" fill="#68A4F4"/>
<path opacity="0.1" d="M289.124 223.378H280.116V231.807H289.124V223.378Z" fill="#68A4F4"/>
<path opacity="0.1" d="M245.729 249.603V244.167H254.734V248.829L245.729 249.603Z" fill="#68A4F4"/>
<path opacity="0.1" d="M5.70117 124.435V129.258H36.5286V124.435H5.70117ZM8.77346 128.955H6.25862V124.732H8.79247L8.77346 128.955ZM11.8426 128.955H9.30874V124.732H11.8426V128.955ZM14.9054 128.955H12.3715V124.732H14.9054V128.955ZM17.9745 128.955H15.4438V124.732H17.9777L17.9745 128.955ZM21.0404 128.955H18.5066V124.732H21.0404V128.955ZM24.1096 128.955H21.5757V124.732H24.1096V128.955ZM27.1787 128.955H24.6448V124.732H27.1787V128.955ZM30.2446 128.955H27.7108V124.732H30.2446V128.955ZM33.3106 128.955H30.7768V124.732H33.3106V128.955ZM36.3766 128.955H33.8427V124.732H36.3766V128.955Z" fill="#68A4F4"/>
<path opacity="0.1" d="M5.70117 138.467V143.289H36.5286V138.467H5.70117ZM8.77346 142.984H6.25862V138.772H8.79247L8.77346 142.984ZM11.8426 142.984H9.30874V138.772H11.8426V142.984ZM14.9054 142.984H12.3715V138.772H14.9054V142.984ZM17.9745 142.984H15.4438V138.772H17.9777L17.9745 142.984ZM21.0404 142.984H18.5066V138.772H21.0404V142.984ZM24.1096 142.984H21.5757V138.772H24.1096V142.984ZM27.1787 142.984H24.6448V138.772H27.1787V142.984ZM30.2446 142.984H27.7108V138.772H30.2446V142.984ZM33.3106 142.984H30.7768V138.772H33.3106V142.984ZM36.3766 142.984H33.8427V138.772H36.3766V142.984Z" fill="#68A4F4"/>
<path opacity="0.1" d="M5.70117 152.504V157.335H36.5286V152.504H5.70117ZM8.77346 157.021H6.25862V152.806H8.79247L8.77346 157.021ZM11.8426 157.021H9.30874V152.806H11.8426V157.021ZM14.9054 157.021H12.3715V152.806H14.9054V157.021ZM17.9745 157.021H15.4438V152.806H17.9777L17.9745 157.021ZM21.0404 157.021H18.5066V152.806H21.0404V157.021ZM24.1096 157.021H21.5757V152.806H24.1096V157.021ZM27.1787 157.021H24.6448V152.806H27.1787V157.021ZM30.2446 157.021H27.7108V152.806H30.2446V157.021ZM33.3106 157.021H30.7768V152.806H33.3106V157.021ZM36.3766 157.021H33.8427V152.806H36.3766V157.021Z" fill="#68A4F4"/>
<path opacity="0.1" d="M5.70117 166.541V171.357H36.5286V166.541H5.70117ZM8.77346 171.058H6.25862V166.84H8.79247L8.77346 171.058ZM11.8426 171.058H9.30874V166.84H11.8426V171.058ZM14.9054 171.058H12.3715V166.84H14.9054V171.058ZM17.9745 171.058H15.4438V166.84H17.9777L17.9745 171.058ZM21.0404 171.058H18.5066V166.84H21.0404V171.058ZM24.1096 171.058H21.5757V166.84H24.1096V171.058ZM27.1787 171.058H24.6448V166.84H27.1787V171.058ZM30.2446 171.058H27.7108V166.84H30.2446V171.058ZM33.3106 171.058H30.7768V166.84H33.3106V171.058ZM36.3766 171.058H33.8427V166.84H36.3766V171.058Z" fill="#68A4F4"/>
<path opacity="0.1" d="M5.83423 180.575C5.95775 181.029 6.09711 181.482 6.24281 181.93V180.878H8.77665V185.093H7.42105C7.46222 185.19 7.5034 185.297 7.54457 185.389H36.5286V180.575H5.83423ZM11.8521 185.093H9.31827V180.878H11.8521V185.093ZM14.9149 185.093H12.3811V180.878H14.9149V185.093ZM17.984 185.093H15.4438V180.878H17.9777L17.984 185.093ZM21.05 185.093H18.5161V180.878H21.05V185.093ZM24.1191 185.093H21.5852V180.878H24.1191V185.093ZM27.1882 185.093H24.6544V180.878H27.1882V185.093ZM30.2542 185.093H27.7203V180.878H30.2542V185.093ZM33.3201 185.093H30.7863V180.878H33.3201V185.093ZM36.3861 185.093H33.8522V180.878H36.3861V185.093Z" fill="#68A4F4"/>
<path opacity="0.1" d="M12.9922 194.613C13.0714 194.708 13.1474 194.814 13.2297 194.909H14.9052V196.934C15.0858 197.135 15.2631 197.337 15.4468 197.526V194.897H17.9807V199.127H16.9545C17.0558 199.225 17.154 199.328 17.2712 199.423H36.5379V194.613H12.9922ZM21.0403 199.127H18.5065V194.915H21.0403V199.127ZM24.1094 199.127H21.5756V194.915H24.1094V199.127ZM27.1785 199.127H24.6447V194.915H27.1785V199.127ZM30.2445 199.127H27.7106V194.915H30.2445V199.127ZM33.3104 199.127H30.7766V194.915H33.3104V199.127ZM36.3764 199.127H33.8426V194.915H36.3764V199.127Z" fill="#68A4F4"/>
<path opacity="0.1" d="M29.9026 208.647C30.1908 208.801 30.4854 208.943 30.7831 209.097V208.949H33.3169V210.283L33.8554 210.517V208.949H36.3892V211.513C36.4378 211.536 36.4888 211.554 36.5413 211.566V208.647H29.9026Z" fill="#68A4F4"/>
<path opacity="0.1" d="M238.967 134.972H238.986H238.967ZM219.456 222.45H219.773H219.456ZM199.1 177.94C199.16 178.13 199.211 178.32 199.268 178.507C199.217 178.32 199.163 178.13 199.1 177.94ZM238.967 134.963H238.986H238.967ZM47.6616 90.5811V91.8467H61.81V90.5811H47.6616ZM219.456 222.45H219.773H219.456ZM199.1 177.94C199.16 178.13 199.211 178.32 199.268 178.507C199.217 178.32 199.163 178.13 199.1 177.94ZM238.967 134.963H238.986H238.967ZM219.456 222.441H219.773H219.456ZM199.1 177.94C199.16 178.13 199.211 178.32 199.268 178.507C199.217 178.32 199.163 178.13 199.1 177.94Z" fill="#68A4F4"/>
<path d="M146.203 148.532C146.203 148.532 144.955 148.369 144.955 146.668C144.955 144.966 144.062 141.789 144.062 141.789C144.062 141.774 143.289 136.255 142.221 135.378C141.154 134.501 139.783 129.349 139.783 129.349C139.783 129.349 139.548 126.554 139.07 125.953C138.592 125.351 137.946 123.878 136.992 121.777C136.039 119.675 132.064 118.22 132.064 118.22C132.064 118.22 124.877 114.319 122.841 113.048C122.656 112.943 122.483 112.821 122.324 112.683C121.97 112.247 120.424 112.239 120.424 112.239C120.263 111.284 120.107 110.188 120.057 109.195C120.057 109.088 120.057 108.981 120.041 108.874C122.312 107.618 124.022 105.638 124.858 103.296C124.896 103.184 124.928 103.065 124.963 102.953C125.099 102.911 125.224 102.843 125.33 102.753C125.437 102.663 125.522 102.553 125.58 102.431C125.764 102.049 125.767 101.601 125.995 101.245C126.261 100.824 126.768 100.599 127.167 100.282C128.174 99.4817 128.434 98.1331 128.387 96.9061C128.355 95.9132 128.184 94.9113 128.25 93.9243L128.269 93.6754C128.288 93.5272 128.311 93.379 128.339 93.2367C128.494 92.5017 128.833 91.8081 129.023 91.079C129.213 90.3498 129.232 89.5288 128.789 88.9005C128.14 87.9787 126.787 87.7949 125.599 87.7001C124.253 87.5934 123.05 87.7327 122.188 86.6864C121.785 86.1395 121.331 85.6268 120.833 85.154C120.655 84.9999 118.932 84.0159 118.932 83.9507C117.251 83.2218 115.344 83.085 113.564 83.5654C112.67 83.8084 111.828 84.2056 110.922 84.4041C108.968 84.8369 106.719 84.3686 105.059 85.4149C104.135 86.0076 103.58 86.9502 103.061 87.869C102.639 88.6258 102.21 89.3816 101.775 90.1364C101.075 91.3783 100.362 92.641 100.068 94.0162C100.006 94.3155 99.9677 94.6186 99.9537 94.9232V94.938C99.9537 95.0477 99.9537 95.1573 99.9537 95.267V95.4063C99.9537 95.5101 99.9537 95.6108 99.9727 95.7027C99.9917 95.7946 99.9886 95.8242 99.9981 95.8865C100.008 95.9487 100.023 96.088 100.042 96.1829C100.061 96.2777 100.099 96.4437 100.137 96.5741C100.153 96.6304 100.175 96.6838 100.194 96.7371C100.226 96.8379 100.264 96.9357 100.305 97.0335C100.327 97.0839 100.35 97.1373 100.375 97.1877C100.422 97.2914 100.48 97.3922 100.537 97.484C100.562 97.5255 100.581 97.5641 100.606 97.6026C100.695 97.7404 100.792 97.8731 100.898 97.9998C101.575 98.7911 102.573 99.295 103.311 100.036C103.311 100.066 103.311 100.095 103.311 100.122C103.311 100.205 103.311 100.285 103.311 100.368C103.35 102.021 103.82 103.639 104.68 105.083C105.54 106.527 106.764 107.752 108.246 108.652C108.246 108.765 108.262 108.88 108.268 108.993C108.33 109.873 108.318 110.756 108.233 111.634C108.104 111.492 107.943 111.379 107.761 111.303C107.579 111.227 107.381 111.19 107.182 111.195C107.045 111.189 106.909 111.2 106.776 111.228L106.748 111.207V111.234C106.051 111.394 105.192 112.073 104.372 114.002C104.372 114.002 101.876 116.634 99.9759 116.524C98.0755 116.415 93.2644 119.263 93.2644 119.263C93.2644 119.263 88.5704 122.114 87.5632 125.019C87.0003 126.666 86.3253 128.278 85.5425 129.844L79.74 141.033L78.6694 149.91C78.6694 149.91 79.2617 153.858 79.1445 154.46C79.0273 155.062 81.5802 160.489 81.5802 160.489C81.5802 160.489 90.0147 174.357 93.4608 175.068L93.7078 174.905C93.8552 174.977 94.0116 175.032 94.1734 175.068L94.8829 174.6C94.9255 175.122 94.9074 175.647 94.829 176.165C94.3539 177.534 95.0064 186.471 95.8362 188.222C96.6661 189.974 96.3715 212.942 96.3715 212.942L96.2543 214.969C96.2543 214.969 96.2543 215.034 96.2828 215.147L96.2543 215.627L96.3398 215.668C96.4286 216.312 96.3997 216.964 96.2543 217.598C95.9566 218.487 95.8362 221.001 95.8362 221.001C95.8362 221.001 93.4639 235.192 94.5883 238.043C95.7127 240.895 96.6692 244.019 96.6692 244.019C96.6692 244.019 97.857 247.575 96.7263 248.183C95.5955 248.791 92.3807 249.81 93.0427 251.292C93.6445 252.661 95.9281 256.331 96.267 256.867L96.2385 257.149L95.7729 261.87C95.8483 262.494 96.029 263.102 96.3082 263.673C96.8181 264.701 97.8095 265.768 99.694 265.652C100.011 265.632 100.378 265.596 100.733 265.552C104.182 265.119 108.429 263.678 108.429 263.678C108.209 263.547 108.007 263.391 107.828 263.213C107.658 263.059 107.524 262.875 107.433 262.671C107.342 262.467 107.296 262.248 107.299 262.028C107.349 261.168 105.63 257.072 105.202 256.064C105.135 255.919 105.101 255.836 105.101 255.836C105.101 255.836 109.022 252.001 108.369 248.601C108.369 248.601 104.03 246.23 105.459 244.929C106.887 243.627 109.44 239.89 109.44 239.89C109.44 239.89 109.557 225.915 109.44 223.828C109.318 222.38 109.391 220.923 109.658 219.492C109.706 219.276 109.763 219.065 109.823 218.858C111.799 219.134 113.793 219.275 115.79 219.282C116.519 219.282 117.26 219.282 118.007 219.24C118.007 219.438 118.017 219.651 118.036 219.88C118.201 223.342 118.508 229.412 118.758 231.668C119.113 234.902 121.073 243.616 121.073 243.616C121.073 243.616 117.333 245.862 121.726 251.399C121.726 251.399 121.726 253.405 121.434 253.696C121.123 254.645 120.873 255.611 120.684 256.589C120.5 257.632 120.424 258.687 120.722 259.236C121.434 260.546 125.71 260.439 125.71 260.439L125.815 260.421C126.622 260.343 127.438 260.416 128.215 260.635C128.992 260.854 129.714 261.216 130.341 261.699C131.966 262.92 138.132 262.383 141.471 261.995C142.779 261.841 143.653 261.699 143.653 261.699C143.695 261.56 143.71 261.415 143.697 261.272C143.663 260.504 143.02 258.821 138.661 257.318C138.661 257.318 134.563 254.739 134.62 252.493H134.534H134.059C134.405 252.475 134.626 252.493 134.626 252.493C134.626 252.493 133.02 247.009 133.676 246.565C134.332 246.12 132.368 240.044 132.368 240.044C132.368 240.044 131.244 229.848 131.183 229.134C131.186 228.521 131.285 227.911 131.478 227.326L131.183 221.736C131.183 221.736 131.126 219.877 131.183 219.273C131.174 218.748 131.128 218.224 131.047 217.705C131.019 217.497 130.99 217.281 130.958 217.067C132.495 216.703 133.492 216.365 133.492 216.365L133.315 196.907C134.62 194.536 134.861 189.334 134.854 185.644C134.854 183.273 134.74 181.518 134.74 181.518L136.523 178.794C136.523 178.794 136.935 175.534 136.283 174.819C135.995 174.496 136.124 174.161 136.362 173.886C136.485 173.794 136.615 173.711 136.752 173.637C136.752 173.637 136.732 173.61 136.71 173.572C136.835 173.474 136.967 173.386 137.106 173.308C137.106 173.308 136.473 172.389 137.04 172.001C137.572 172.339 138.047 172.593 138.408 172.801C138.383 173.017 138.357 173.142 138.357 173.142L138.509 172.845C138.858 173.029 139.07 173.142 139.07 173.142C139.07 173.142 141.864 167.934 141.803 167.166C141.743 166.399 143.704 163.165 143.704 163.165C143.704 163.165 143.941 161.467 145.012 160.755C146.082 160.044 145.842 154.89 145.842 154.89C145.842 154.89 146.139 152.204 146.852 151.108C147.565 150.011 146.203 148.532 146.203 148.532ZM92.7513 146.247L92.8051 147.489C92.4884 147.012 92.2603 146.668 92.2603 146.668L92.7513 146.247Z" fill="url(#paint0_linear_3311_1177)"/>
<path d="M139.222 170.892L138.538 173.619C138.538 173.619 133.059 171.002 132.07 167.676C131.082 164.351 133.724 163.088 133.724 163.088L138.829 165.113L139.222 170.892Z" fill="white"/>
<path opacity="0.1" d="M139.222 170.892L138.538 173.619C138.538 173.619 133.059 171.002 132.07 167.676C131.082 164.351 133.724 163.088 133.724 163.088L138.829 165.113L139.222 170.892Z" fill="black"/>
<path d="M108.471 263.696C108.471 263.696 103.403 265.439 99.9191 265.658C98.0694 265.774 97.097 264.713 96.5966 263.69C96.3232 263.122 96.1469 262.517 96.074 261.897L96.5269 257.199L96.7676 254.698L104.17 252.899L105.218 255.898L105.316 256.126C105.737 257.128 107.426 261.204 107.375 262.054C107.373 262.272 107.418 262.488 107.507 262.689C107.596 262.89 107.728 263.073 107.894 263.225C108.064 263.404 108.258 263.563 108.471 263.696Z" fill="white"/>
<path d="M143.086 261.307C143.099 261.45 143.084 261.594 143.042 261.731C143.042 261.731 132.203 263.424 129.986 261.731C129.361 261.237 128.633 260.87 127.847 260.655C127.062 260.439 126.237 260.38 125.425 260.48C125.425 260.48 121.232 260.587 120.532 259.295C120.24 258.752 120.317 257.7 120.497 256.663C120.681 255.691 120.927 254.73 121.232 253.785L121.4 253.66L122.397 252.91L134.078 252.587H134.167C134.11 254.822 138.133 257.386 138.133 257.386C142.405 258.868 143.036 260.543 143.086 261.307Z" fill="white"/>
<path opacity="0.1" d="M143.086 261.307C143.097 261.45 143.081 261.594 143.039 261.731C143.039 261.731 132.203 263.424 129.986 261.731C129.362 261.237 128.633 260.871 127.849 260.655C127.064 260.44 126.239 260.38 125.429 260.48C125.429 260.48 121.232 260.587 120.535 259.295C120.244 258.749 120.317 257.7 120.497 256.663C122.112 256.814 124.662 257.19 125.663 258.089C127.177 259.455 129.742 260.818 131.317 260.925C132.549 260.999 139.919 261.218 143.086 261.307Z" fill="black"/>
<path opacity="0.1" d="M108.471 263.696C108.471 263.696 103.403 265.439 99.9189 265.659C98.0692 265.774 97.0969 264.713 96.5996 263.688C97.8887 264.094 99.6782 264.52 100.619 264.129C101.734 263.667 105.687 263.367 107.904 263.24C108.072 263.413 108.263 263.566 108.471 263.696Z" fill="black"/>
<path d="M115.99 123.25C111.809 121.729 106.431 116.705 107.774 114.358C108.072 113.766 108.249 113.126 108.297 112.473C108.383 111.586 108.396 110.694 108.335 109.805C108.24 108.35 108.053 106.901 107.774 105.466C107.774 105.466 120.826 105.742 120.066 107.541C119.845 108.068 119.81 108.984 119.87 110.01C119.93 111.035 120.088 112.194 120.253 113.175C120.481 114.521 120.709 115.546 120.709 115.546C120.709 115.546 119.911 116.593 119.442 116.649C118.974 116.705 121.989 125.416 115.99 123.25Z" fill="#CF6F80"/>
<path opacity="0.1" d="M105.307 256.126L105.208 256.227C101.306 251.811 96.587 257.315 96.587 257.315L96.5173 257.199L96.7581 254.698L104.16 252.899L105.208 255.898L105.307 256.126Z" fill="black"/>
<path opacity="0.1" d="M134.17 252.899C134.17 252.899 131.32 252.842 129.799 254.099C128.279 255.356 120.931 254.372 121.248 254.099C121.342 253.964 121.398 253.809 121.412 253.649L122.41 252.899L134.091 252.576C134.136 252.774 134.17 252.899 134.17 252.899Z" fill="black"/>
<path d="M110.162 218.218C109.95 218.709 109.789 219.218 109.681 219.738C109.416 221.162 109.343 222.612 109.462 224.054C109.579 226.128 109.462 240.032 109.462 240.032C109.462 240.032 106.957 243.74 105.56 245.047C104.163 246.354 108.411 248.702 108.411 248.702C109.044 252.081 105.205 255.898 105.205 255.898C101.303 251.482 96.5838 256.989 96.5838 256.989C96.5838 256.989 94.0183 252.839 93.3785 251.357C92.7387 249.876 95.8838 248.85 96.9892 248.248C98.0946 247.647 96.9354 244.099 96.9354 244.099C96.9354 244.099 96.001 240.99 94.8925 238.153C93.7839 235.317 96.115 221.196 96.115 221.196C96.115 221.196 96.2354 218.689 96.5236 217.814C96.669 217.184 96.698 216.534 96.6091 215.894C96.5901 215.677 96.568 215.497 96.5521 215.375C96.5363 215.254 96.5236 215.197 96.5236 215.197L96.568 215.126L98.1516 212.364C98.1516 212.364 110.922 216.478 110.162 218.218Z" fill="#68A4F4"/>
<path d="M134.17 252.573C134.17 252.573 131.32 252.516 129.799 253.758C128.279 255 120.931 254.031 121.248 253.758C121.564 253.486 121.539 251.467 121.539 251.467C117.228 245.96 120.905 243.725 120.905 243.725C120.905 243.725 118.98 235.056 118.631 231.84C118.387 229.593 118.087 223.556 117.925 220.109C117.855 218.627 117.814 217.607 117.814 217.607L121.336 216.943L121.789 216.857L130.284 215.262C130.284 215.262 130.518 216.744 130.677 217.957C130.756 218.474 130.8 218.996 130.81 219.519C130.753 220.111 130.81 221.967 130.81 221.967L131.098 227.53C130.91 228.114 130.812 228.72 130.81 229.329C130.867 230.038 131.972 240.18 131.972 240.18C131.972 240.18 133.895 246.233 133.239 246.668C132.583 247.104 134.17 252.573 134.17 252.573Z" fill="#68A4F4"/>
<path opacity="0.1" d="M120.066 107.541C119.845 108.068 119.81 108.984 119.87 110.01C118.122 110.995 116.112 111.499 114.071 111.463C112.031 111.427 110.042 110.854 108.335 109.808C108.241 108.352 108.053 106.902 107.774 105.466C107.774 105.466 120.826 105.736 120.066 107.541Z" fill="black"/>
<path d="M125.112 100.991C125.114 102.059 124.935 103.12 124.58 104.135C123.786 106.41 122.159 108.348 119.986 109.609C117.812 110.869 115.233 111.37 112.703 111.023C110.174 110.675 107.857 109.502 106.162 107.711C104.467 105.92 103.503 103.625 103.441 101.234C103.441 101.151 103.441 101.074 103.441 100.991C103.416 99.6442 103.679 98.3068 104.212 97.0562C104.746 95.8057 105.54 94.6671 106.549 93.7068C107.558 92.7466 108.76 91.9839 110.088 91.4633C111.415 90.9427 112.839 90.6746 114.278 90.6746C115.717 90.6746 117.141 90.9427 118.468 91.4633C119.795 91.9839 120.998 92.7466 122.007 93.7068C123.016 94.6671 123.81 95.8057 124.344 97.0562C124.877 98.3068 125.14 99.6442 125.115 100.991H125.112Z" fill="#CF6F80"/>
<path opacity="0.1" d="M115.99 123.25C111.809 121.729 106.431 116.705 107.774 114.358C108.072 113.766 108.249 113.126 108.297 112.473L114.02 116.874L117.561 119.592L120.253 113.178C120.481 114.524 120.709 115.549 120.709 115.549C120.709 115.549 119.911 116.596 119.442 116.652C118.974 116.708 121.989 125.416 115.99 123.25Z" fill="black"/>
<path d="M130.791 142.702L126.011 217.838L119.778 218.22L103.637 174.653L106.285 122.93L106.843 112.001L114.02 117.517L117.564 120.235L120.335 113.635L125.489 117.837L130.791 142.702Z" fill="#68A4F4"/>
<path opacity="0.1" d="M110.162 218.218C109.95 218.709 109.789 219.218 109.681 219.738C105.145 219.083 100.74 217.795 96.6124 215.918L96.5269 215.876L96.5554 215.399L96.5712 215.15L98.1549 212.387C98.1549 212.387 110.922 216.478 110.162 218.218Z" fill="black"/>
<path opacity="0.1" d="M121.409 219.75C120.25 219.934 119.08 220.059 117.906 220.123C117.836 218.641 117.795 217.622 117.795 217.622L121.317 216.958L121.409 219.75Z" fill="black"/>
<path opacity="0.1" d="M130.658 217.972C128.406 218.52 124.928 219.136 121.815 218.751L121.77 216.872L130.265 215.277C130.265 215.277 130.499 216.745 130.658 217.972Z" fill="black"/>
<path opacity="0.1" d="M121.757 219.095C108.772 221.17 96.8783 215.221 96.8783 215.221L96.9923 213.205C96.9923 213.205 97.2869 190.356 96.4697 188.605C95.6525 186.853 95.0159 177.97 95.4783 176.607C95.9408 175.243 93.7902 154.798 93.7902 154.798L93.4418 146.499L80.6902 141.665L86.3913 130.544C87.1614 128.985 87.8237 127.381 88.3741 125.742C89.3654 122.855 93.9675 120.019 93.9675 120.019C93.9675 120.019 98.6868 117.185 100.552 117.292C102.418 117.399 104.863 114.785 104.863 114.785C106.668 110.478 108.303 112.428 108.303 112.428C108.303 112.633 108.303 112.428 108.214 113.066C107.581 117.793 118.457 132.731 118.612 132.995L119.648 156.606L120.696 186.485L121.757 219.095Z" fill="black"/>
<path d="M121.409 219.095C108.423 221.17 96.5267 215.221 96.5267 215.221L96.6439 213.205C96.6439 213.205 96.9384 190.356 96.1181 188.605C95.2978 186.853 94.6643 177.97 95.1299 176.607C95.5955 175.243 93.4418 154.798 93.4418 154.798L93.0902 146.499L80.3323 141.647L86.0334 130.526C86.8018 128.966 87.464 127.363 88.0162 125.725C89.0044 122.838 93.6096 120.001 93.6096 120.001C93.6096 120.001 98.3289 117.168 100.191 117.274C102.054 117.381 104.502 114.767 104.502 114.767C106.311 110.46 108.303 112.41 108.303 112.41C108.303 112.615 108.113 112.707 108.214 113.048C109.608 117.633 118.109 132.714 118.264 132.977L119.312 156.588L120.361 186.468L121.409 219.095Z" fill="white"/>
<path opacity="0.1" d="M117.909 133.65C116.512 133.105 109.114 125.2 109.114 125.2V123.401C108.844 122.808 107.245 123.17 105.946 123.585L106.504 112.656L107.137 113.149C108.524 117.731 117.748 133.386 117.909 133.65Z" fill="black"/>
<path d="M118.261 132.995C116.861 132.45 109.462 124.545 109.462 124.545V122.746C109.193 122.153 107.593 122.515 106.295 122.93L106.855 112.001L107.489 112.493C108.879 117.076 118.106 132.734 118.261 132.995Z" fill="white"/>
<path opacity="0.1" d="M96.8784 172.419C97.0526 172.419 105.908 171.547 105.908 171.547C105.908 171.547 111.271 181.414 110.919 183.815C110.568 186.216 109.931 188.341 107.774 187.965C105.617 187.588 96.1658 188.261 96.1658 188.261L96.8784 172.419Z" fill="black"/>
<path d="M96.5269 171.763C96.7011 171.763 105.557 170.892 105.557 170.892C105.557 170.892 110.916 180.762 110.568 183.16C110.219 185.558 109.576 187.686 107.422 187.309C105.269 186.933 95.8142 187.606 95.8142 187.606L96.5269 171.763Z" fill="white"/>
<path d="M103.2 167.131C103.2 167.131 111.328 171.218 111.502 172.466C111.676 173.714 107.365 171.921 106.434 171.704C105.821 171.566 105.197 171.475 104.569 171.432L98.3574 171.589L103.2 167.131Z" fill="#CF6F80"/>
<path opacity="0.1" d="M115.642 134.16C116.114 134.16 116.497 133.802 116.497 133.36C116.497 132.918 116.114 132.56 115.642 132.56C115.169 132.56 114.786 132.918 114.786 133.36C114.786 133.802 115.169 134.16 115.642 134.16Z" fill="black"/>
<path d="M115.642 133.834C116.114 133.834 116.497 133.476 116.497 133.034C116.497 132.592 116.114 132.233 115.642 132.233C115.169 132.233 114.786 132.592 114.786 133.034C114.786 133.476 115.169 133.834 115.642 133.834Z" fill="#3F3D56"/>
<path opacity="0.1" d="M117.216 168.803C117.688 168.803 118.071 168.444 118.071 168.002C118.071 167.56 117.688 167.202 117.216 167.202C116.743 167.202 116.361 167.56 116.361 168.002C116.361 168.444 116.743 168.803 117.216 168.803Z" fill="black"/>
<path d="M117.216 168.474C117.688 168.474 118.071 168.115 118.071 167.673C118.071 167.231 117.688 166.873 117.216 166.873C116.743 166.873 116.361 167.231 116.361 167.673C116.361 168.115 116.743 168.474 117.216 168.474Z" fill="#3F3D56"/>
<path opacity="0.1" d="M116.494 151.481C116.966 151.481 117.349 151.123 117.349 150.681C117.349 150.239 116.966 149.881 116.494 149.881C116.021 149.881 115.638 150.239 115.638 150.681C115.638 151.123 116.021 151.481 116.494 151.481Z" fill="black"/>
<path d="M116.494 151.155C116.966 151.155 117.349 150.797 117.349 150.355C117.349 149.913 116.966 149.555 116.494 149.555C116.021 149.555 115.638 149.913 115.638 150.355C115.638 150.797 116.021 151.155 116.494 151.155Z" fill="#3F3D56"/>
<path d="M136.207 171.266C136.207 171.266 136.79 172.084 136.207 172.466C135.624 172.848 136.264 173.773 136.264 173.773C136.264 173.773 134.81 174.57 135.45 175.288C136.09 176.005 135.684 179.245 135.684 179.245L133.936 181.954C133.936 181.954 134.04 183.699 134.047 186.059C134.047 189.74 133.816 194.915 132.536 197.274L132.713 216.632C132.713 216.632 126.591 218.724 121.466 218.087L120.706 187.025C120.706 187.025 121.815 169.41 122.223 166.031C122.462 164.277 122.56 162.509 122.515 160.741C122.515 160.741 122.34 155.453 121.754 152.999C121.754 152.999 121.121 142.367 121.058 139.424C121.029 138.016 121.108 133.908 121.197 130.002C121.295 125.731 121.406 121.703 121.406 121.703L120.25 113.143C120.25 113.143 121.406 113.033 121.754 113.469C121.911 113.605 122.08 113.727 122.261 113.833C124.257 115.096 131.307 118.979 131.307 118.979C131.307 118.979 135.209 120.431 136.144 122.512C137.078 124.592 137.727 126.068 138.18 126.661C138.633 127.254 138.88 130.04 138.88 130.04C138.88 130.04 140.223 135.168 141.271 136.036C142.32 136.905 143.086 142.429 143.086 142.429L133.822 149.247C133.822 149.247 133.008 160.587 132.834 161.025C132.66 161.464 136.207 171.266 136.207 171.266Z" fill="white"/>
<path d="M136.558 171.266C136.558 171.266 137.138 172.084 136.558 172.466C135.979 172.848 136.612 173.773 136.612 173.773C136.612 173.773 135.168 174.579 135.801 175.297C136.435 176.014 136.036 179.253 136.036 179.253L134.287 181.962C134.287 181.962 134.392 183.708 134.401 186.068C134.401 189.749 134.17 194.924 132.891 197.283L133.065 216.641C133.065 216.641 126.933 218.733 121.815 218.096L121.058 187.034C121.058 187.034 122.166 169.419 122.575 166.04C122.814 164.286 122.91 162.517 122.863 160.75C122.863 160.75 122.689 155.462 122.106 153.008C122.106 153.008 121.473 142.376 121.406 139.433C121.378 138.025 121.46 133.917 121.545 130.01C121.644 125.739 121.754 121.711 121.754 121.711L120.228 113.036C120.228 113.036 121.754 113.036 122.106 113.478C122.261 113.616 122.43 113.738 122.613 113.842C124.608 115.105 131.662 118.987 131.662 118.987C131.662 118.987 135.561 120.44 136.495 122.521C137.429 124.601 138.079 126.077 138.535 126.67C138.991 127.263 139.232 130.049 139.232 130.049C139.232 130.049 140.575 135.177 141.623 136.045C142.671 136.913 143.428 142.426 143.428 142.426L134.164 149.243C134.164 149.243 133.35 160.584 133.173 161.022C132.995 161.461 136.558 171.266 136.558 171.266Z" fill="white"/>
<path opacity="0.1" d="M125.463 124.228L126.3 126.51L121.897 130.66C121.995 126.391 122.106 122.361 122.106 122.361L120.579 113.685C120.579 113.685 122.106 113.685 122.458 114.127C122.612 114.264 122.782 114.386 122.964 114.488L126.708 124.595L125.463 124.228Z" fill="black"/>
<path d="M125.112 123.573L125.951 125.855L121.549 130.005C121.647 125.734 121.758 121.706 121.758 121.706L120.228 113.03C120.228 113.03 121.758 113.03 122.106 113.472C122.261 113.609 122.431 113.731 122.613 113.836L126.36 123.94L125.112 123.573Z" fill="white"/>
<path opacity="0.1" d="M125.112 100.991C125.114 102.059 124.935 103.12 124.58 104.135C124.52 104.144 124.459 104.141 124.4 104.128C124.341 104.114 124.286 104.089 124.238 104.055C124.155 101.388 122.752 98.8832 121.026 96.7521C120.541 96.1087 119.954 95.5389 119.284 95.0627C118.607 94.5867 117.764 94.3638 116.921 94.4373C115.971 94.5588 115.132 95.1634 114.172 95.2405C112.905 95.3383 111.771 94.5173 110.514 94.4758C110.002 94.4804 109.498 94.5869 109.034 94.7882C108.571 94.9896 108.158 95.2812 107.825 95.6436C107.164 96.3749 106.673 97.2268 106.383 98.1452C105.885 99.5378 105.614 100.993 105.579 102.461C105.563 103.291 105.478 104.331 104.654 104.633C104.716 104.023 104.642 103.407 104.436 102.825C104.231 102.243 103.898 101.707 103.46 101.251L103.441 101.234C103.441 101.151 103.441 101.074 103.441 100.991C103.416 99.6442 103.679 98.3068 104.212 97.0562C104.746 95.8057 105.54 94.6671 106.549 93.7068C107.558 92.7466 108.76 91.9839 110.088 91.4633C111.415 90.9427 112.839 90.6746 114.278 90.6746C115.717 90.6746 117.141 90.9427 118.468 91.4633C119.795 91.9839 120.998 92.7466 122.007 93.7068C123.016 94.6671 123.81 95.8057 124.344 97.0562C124.877 98.3068 125.14 99.6442 125.115 100.991H125.112Z" fill="black"/>
<path d="M118.765 84.8873C117.119 84.1628 115.247 84.0258 113.501 84.502C112.623 84.7451 111.797 85.1393 110.907 85.3379C109.006 85.7676 106.789 85.3023 105.158 86.3426C104.252 86.9354 103.707 87.872 103.2 88.782L101.934 91.0405C101.243 92.2765 100.546 93.5332 100.258 94.8936C99.9698 96.2541 100.144 97.7775 101.066 98.8712C101.737 99.6685 102.729 100.169 103.457 100.919C103.893 101.375 104.224 101.911 104.429 102.492C104.634 103.074 104.709 103.689 104.648 104.298C105.475 104.002 105.554 102.959 105.573 102.129C105.608 100.66 105.879 99.2057 106.377 97.8131C106.666 96.8945 107.157 96.0424 107.818 95.3115C108.152 94.9494 108.565 94.658 109.029 94.4567C109.492 94.2553 109.996 94.1487 110.507 94.1437C111.774 94.1852 112.911 95.0033 114.166 94.9055C115.116 94.8314 115.958 94.2238 116.915 94.1052C117.758 94.0305 118.601 94.2536 119.278 94.7306C119.947 95.2061 120.534 95.776 121.017 96.4201C122.746 98.5511 124.149 101.05 124.231 103.723C124.589 103.969 125.106 103.649 125.283 103.27C125.46 102.89 125.467 102.446 125.692 102.084C125.951 101.666 126.449 101.444 126.838 101.13C127.826 100.332 128.073 98.9898 128.035 97.7716C127.997 96.5534 127.744 95.3175 127.991 94.12C128.14 93.385 128.476 92.6973 128.659 91.9712C128.843 91.245 128.865 90.4299 128.431 89.8045C127.798 88.8857 126.464 88.7049 125.302 88.6189C123.981 88.5122 122.8 88.6486 121.957 87.6082C121.562 87.0653 121.117 86.5556 120.627 86.0848C120.459 85.9306 118.765 84.9525 118.765 84.8873Z" fill="#072144"/>
<path opacity="0.1" d="M84.3389 147.391L81.0291 141.665L79.9807 150.5C79.9807 150.5 80.5635 154.425 80.4463 155.026C80.3291 155.628 82.8345 161.022 82.8345 161.022C82.8345 161.022 91.1106 174.817 94.4901 175.528L105.908 167.893L102.88 164.295C102.88 164.295 101.832 163.912 101.569 164.295C101.569 164.295 95.9471 155.243 95.3643 154.588C94.7815 153.933 94.8956 152.625 94.8956 152.625C94.8956 152.625 94.0214 151.754 94.3128 150.936C94.6042 150.118 92.6246 147.281 92.6246 147.281L94.43 145.702L84.3389 147.391Z" fill="black"/>
<path d="M81.2033 141.013L80.3291 141.665L79.2808 150.5C79.2808 150.5 79.8635 154.425 79.7464 155.026C79.6292 155.628 82.1377 161.022 82.1377 161.022C82.1377 161.022 90.4107 174.817 93.7902 175.528L105.212 167.893L102.18 164.295C102.18 164.295 101.132 163.912 100.869 164.295C100.869 164.295 95.2472 155.243 94.6644 154.588C94.0816 153.933 94.1988 152.625 94.1988 152.625C94.1988 152.625 93.3246 151.754 93.616 150.936C93.9074 150.118 91.9247 147.281 91.9247 147.281L93.73 145.702L81.2033 141.013Z" fill="white"/>
<path opacity="0.1" d="M135.45 175.626C136.083 176.346 135.684 179.58 135.684 179.58L133.936 182.289C133.936 182.289 134.04 184.037 134.047 186.394L131.107 187.253C130.842 187.331 130.56 187.348 130.286 187.303C130.012 187.258 129.753 187.152 129.532 186.995C129.31 186.837 129.132 186.633 129.012 186.398C128.892 186.163 128.834 185.904 128.843 185.644L129.35 170.347L136.207 172.801C135.624 173.18 136.264 174.111 136.264 174.111C136.264 174.111 134.81 174.905 135.45 175.626Z" fill="black"/>
<path d="M135.801 175.297C136.435 176.017 136.036 179.253 136.036 179.253L134.287 181.963C134.287 181.963 134.392 183.708 134.401 186.068L131.408 186.942C131.148 187.018 130.872 187.034 130.604 186.99C130.336 186.946 130.083 186.842 129.866 186.688C129.649 186.534 129.475 186.333 129.357 186.103C129.24 185.873 129.183 185.62 129.191 185.365L129.701 170.021L136.562 172.475C135.976 172.854 136.615 173.782 136.615 173.782C136.615 173.782 135.168 174.579 135.801 175.297Z" fill="white"/>
<path d="M138.072 168.005C138.072 168.005 137.607 170.788 136.441 170.951C135.276 171.114 134.753 175.454 133.591 175.3C132.428 175.145 133.198 171.266 133.239 170.513C133.28 169.76 131.972 166.642 132.951 165.933C133.93 165.225 137.027 165.933 137.027 165.933L138.072 168.005Z" fill="#CF6F80"/>
<path opacity="0.1" d="M140.552 146.573L142.75 142.424C142.75 142.424 143.625 145.586 143.625 147.276C143.625 148.965 144.847 149.131 144.847 149.131C144.847 149.131 146.187 150.613 145.481 151.692C144.774 152.771 144.489 155.456 144.489 155.456C144.489 155.456 144.72 160.581 143.672 161.289C142.624 161.997 142.405 163.69 142.405 163.69C142.405 163.69 140.479 166.906 140.54 167.67C140.6 168.435 137.86 173.613 137.86 173.613C137.86 173.613 139.2 167.178 131.392 164.398C131.392 164.398 131.332 162.214 131.915 161.615C132.498 161.016 133.407 160.744 132.837 157.718C132.267 154.691 132.672 151.075 132.672 150.349C132.672 149.623 134.42 145.094 134.42 145.094L140.552 146.573Z" fill="black"/>
<path d="M141.503 141.831L143.422 142.424C143.422 142.424 144.299 145.586 144.299 147.276C144.299 148.965 145.522 149.131 145.522 149.131C145.522 149.131 146.862 150.613 146.155 151.692C145.449 152.771 145.167 155.456 145.167 155.456C145.167 155.456 145.398 160.581 144.35 161.289C143.302 161.998 143.067 163.69 143.067 163.69C143.067 163.69 141.145 166.906 141.205 167.671C141.265 168.435 138.522 173.613 138.522 173.613C138.522 173.613 139.865 167.178 132.055 164.398C132.055 164.398 131.997 162.214 132.58 161.615C133.163 161.016 134.072 160.744 133.502 157.718C132.932 154.691 133.337 151.075 133.337 150.349C133.337 149.623 135.086 145.094 135.086 145.094L141.503 141.831Z" fill="white"/>
<path opacity="0.1" d="M99.1082 249.384C99.1082 249.384 102.168 247.584 104.176 248.892C106.184 250.199 99.1082 249.384 99.1082 249.384Z" fill="black"/>
<path opacity="0.1" d="M122.882 243.82C122.882 243.82 125.59 243.494 127.864 245.785C130.138 248.076 122.882 243.82 122.882 243.82Z" fill="black"/>
<g opacity="0.1">
<path opacity="0.1" d="M126.844 100.481C126.455 100.795 125.954 101.02 125.694 101.438C125.473 101.796 125.466 102.238 125.289 102.623C125.112 103.009 124.595 103.323 124.237 103.08C124.155 100.412 122.749 97.9078 121.023 95.7738C120.54 95.1297 119.953 94.5598 119.284 94.0843C118.606 93.6074 117.762 93.3844 116.918 93.4589C115.968 93.5804 115.131 94.1851 114.172 94.2592C112.905 94.36 111.768 93.5389 110.51 93.4975C109.999 93.5022 109.495 93.6091 109.032 93.8111C108.569 94.013 108.157 94.3052 107.825 94.6682C107.163 95.398 106.672 96.2491 106.383 97.1668C105.886 98.5595 105.614 100.014 105.579 101.482C105.56 102.309 105.478 103.341 104.66 103.649C104.679 103.868 104.679 104.088 104.66 104.307C105.484 104.011 105.566 102.967 105.585 102.137C105.621 100.669 105.892 99.2144 106.39 97.8218C106.679 96.9032 107.17 96.0512 107.831 95.3203C108.164 94.9583 108.576 94.6669 109.039 94.4655C109.502 94.2642 110.006 94.1574 110.517 94.1525C111.784 94.194 112.924 95.012 114.178 94.9142C115.128 94.8401 115.971 94.2325 116.924 94.114C117.769 94.0394 118.612 94.2624 119.29 94.7393C119.96 95.2148 120.546 95.7848 121.029 96.4288C122.755 98.5599 124.161 101.058 124.244 103.732C124.602 103.978 125.118 103.658 125.295 103.278C125.473 102.899 125.479 102.454 125.701 102.093C125.96 101.675 126.461 101.453 126.85 101.138C127.839 100.341 128.086 98.9985 128.048 97.7804C128.048 97.7418 128.048 97.7033 128.048 97.6677C127.988 98.7229 127.687 99.7988 126.844 100.481Z" fill="black"/>
<path opacity="0.1" d="M103.463 100.27C102.735 99.5203 101.74 99.0194 101.072 98.2251C100.509 97.5219 100.188 96.6754 100.15 95.7976C100.05 96.8945 100.378 97.9882 101.072 98.8771C101.74 99.6744 102.735 100.175 103.463 100.925C104.163 101.659 104.582 102.588 104.657 103.569C104.706 102.972 104.625 102.373 104.42 101.806C104.215 101.239 103.889 100.717 103.463 100.27Z" fill="black"/>
<path opacity="0.1" d="M128.665 91.322C128.478 92.0481 128.146 92.7387 127.994 93.4708C127.904 93.96 127.871 94.4569 127.896 94.9528C127.906 94.6703 127.939 94.389 127.994 94.111C128.146 93.376 128.478 92.6883 128.665 91.9622C128.774 91.5617 128.81 91.1467 128.77 90.7351C128.75 90.9328 128.715 91.129 128.665 91.322Z" fill="black"/>
</g>
<path opacity="0.1" d="M42.0397 261.435C59.0845 261.435 72.902 259.358 72.902 256.796C72.902 254.234 59.0845 252.158 42.0397 252.158C24.995 252.158 11.1775 254.234 11.1775 256.796C11.1775 259.358 24.995 261.435 42.0397 261.435Z" fill="#68A4F4"/>
<path d="M43.0342 167.937H41.0483V209.779H43.0342V167.937Z" fill="#535461"/>
<path d="M55.5133 209.652L55.3898 211.537L55.2124 214.204L55.1396 215.313L54.9654 217.98L54.8894 219.089L54.712 221.756L52.7103 252.009C52.6233 253.311 52.0095 254.533 50.9939 255.426C49.9783 256.319 48.6372 256.817 47.2435 256.817H36.8357C35.4424 256.816 34.1016 256.319 33.0865 255.426C32.0714 254.533 31.4583 253.311 31.3721 252.009L29.3799 221.736L29.2025 219.068L29.1297 217.96L28.9523 215.292L28.8794 214.184L28.7021 211.516L28.5754 209.631C28.5534 209.268 28.6108 208.905 28.7442 208.564C28.8776 208.222 29.084 207.91 29.351 207.646C29.6179 207.382 29.9396 207.172 30.2964 207.029C30.6533 206.885 31.0376 206.812 31.426 206.812H52.7134C53.1003 206.815 53.4824 206.893 53.8361 207.039C54.1898 207.186 54.5076 207.399 54.77 207.665C55.0324 207.931 55.2337 208.245 55.3615 208.586C55.4894 208.928 55.541 209.291 55.5133 209.652Z" fill="#3F3D56"/>
<path d="M55.3898 211.537L55.2125 214.196H28.8668L28.6895 211.537H55.3898Z" fill="#9D9CB5"/>
<path d="M55.1397 215.304L54.9654 217.966H29.1171L28.9397 215.304H55.1397Z" fill="#9D9CB5"/>
<path d="M54.8895 219.077L54.7153 221.736H29.3673L29.1899 219.077H54.8895Z" fill="#9D9CB5"/>
<path d="M25.6584 183.619C37.2223 191.45 42.0492 203.697 42.0492 203.697C42.0492 203.697 28.1131 203.25 16.5461 195.419C4.97909 187.588 0.161621 175.344 0.161621 175.344C0.161621 175.344 14.0914 175.789 25.6584 183.619Z" fill="#68A4F4"/>
<path d="M0.1521 175.344C0.1521 175.344 14.6204 182.858 19.2605 189.079C23.9006 195.3 42.0492 203.697 42.0492 203.697" stroke="#535461" stroke-width="2" stroke-miterlimit="10"/>
<path d="M33.1238 167.845C39.4172 172.104 42.0492 178.77 42.0492 178.77C42.0492 178.77 34.4635 178.527 28.1669 174.268C21.8703 170.009 19.2446 163.34 19.2446 163.34C19.2446 163.34 26.8272 163.583 33.1238 167.845Z" fill="#68A4F4"/>
<path d="M19.2446 163.34C19.2446 163.34 27.1186 167.43 29.6429 170.815C32.1672 174.2 42.0492 178.77 42.0492 178.77" stroke="#535461" stroke-width="2" stroke-miterlimit="10"/>
<path d="M51.1868 178.432C43.9558 185.869 42.426 195.588 42.426 195.588C42.426 195.588 52.6216 193.246 59.8462 185.807C67.0708 178.367 68.607 168.651 68.607 168.651C68.607 168.651 58.4178 170.996 51.1868 178.432Z" fill="#68A4F4"/>
<path d="M68.6133 168.654C68.6133 168.654 59.1937 176.278 56.7993 181.53C54.4048 186.782 42.426 195.588 42.426 195.588" stroke="#535461" stroke-width="2" stroke-miterlimit="10"/>
<path d="M316.626 175.815C316.626 175.815 311.397 151.47 313.399 148.44C313.399 148.44 313.471 145.625 313.351 142.035C313.351 141.899 313.351 141.763 313.351 141.623C313.703 141.843 314.07 142.041 314.45 142.216C316.295 143.103 318.412 143.359 320.436 142.939L318.853 141.288C318.473 140.894 318.077 140.467 317.994 139.946C317.912 139.424 318.14 138.959 318.336 138.493C319.841 134.937 319.92 130.464 317.022 127.749C314.574 125.467 313.978 122.521 311.321 120.437C309.379 118.911 308.312 116.673 307.305 114.509C306.453 112.68 305.594 110.837 305.107 108.898C304.727 107.384 304.575 105.816 304.052 104.337C303.529 102.858 302.551 101.42 301.021 100.759C300.476 100.525 299.871 100.392 299.374 100.081C298.721 99.6686 298.329 98.9988 297.857 98.4119C295.459 95.4479 287.43 97.1937 283.629 98.3971C282.596 98.7001 281.639 99.1962 280.817 99.8553L280.851 99.802C280.88 99.7575 280.915 99.7131 280.946 99.6686C280.53 99.9834 280.171 100.359 279.882 100.78C279.328 101.601 279.097 102.558 278.634 103.448C278.077 104.5 274.976 107.437 276.309 108.62C276.403 108.699 276.51 108.763 276.626 108.809C277.127 109.004 277.678 109.056 278.21 108.958L278.153 109.085C277.697 110.128 277.464 111.245 277.466 112.372C277.466 117.242 281.757 121.19 287.056 121.19C288.052 121.191 289.043 121.048 289.992 120.766C290.014 120.879 290.033 120.991 290.056 121.104C290.056 121.148 290.071 121.193 290.078 121.237L289.91 121.457C289.901 121.443 289.892 121.43 289.881 121.418L284.909 127.921C284.149 128.422 279.771 131.386 279.524 133.609C279.265 136.042 279.005 138.891 279.005 138.891L278.97 139.501C278.753 139.671 278.499 139.795 278.225 139.864C277.952 139.933 277.666 139.946 277.386 139.901C275.834 139.664 275.834 145.236 275.834 145.236C275.834 145.236 274.802 146.126 274.092 145.355C273.383 144.584 271.508 147.196 271.508 147.196L259.757 147.67L259.488 147.685L258.854 145.85C258.786 145.656 258.639 145.496 258.445 145.403C258.251 145.31 258.026 145.293 257.819 145.355C257.77 145.37 257.722 145.389 257.676 145.411L257.632 145.435L257.55 145.488L257.508 145.524C257.486 145.543 257.464 145.564 257.445 145.586L257.407 145.628L257.388 145.645C257.315 145.74 257.266 145.849 257.247 145.965C257.227 146.08 257.236 146.198 257.274 146.309L257.819 147.883C255.551 148.31 253.232 149.513 255.123 152.827L245.539 151.17L248.64 153.607L264.647 156.698C264.435 157.054 264.575 157.569 265.237 158.295C268.087 161.428 273.282 162.279 275.372 162.498C275.924 163.654 276.614 164.748 277.428 165.759L277.247 168.88C277.247 168.88 271.954 192.668 270.985 193.875C271.474 193.356 271.922 192.804 272.325 192.224C270.789 197.111 268.641 203.801 268.078 204.803C267.172 206.403 266.332 212.88 267.365 213.295C267.682 213.422 268.588 213.36 269.88 213.268V213.804L269.823 234.134C269.823 234.134 270.083 246.603 269.37 247.792C268.657 248.98 268.467 251.473 268.467 251.473C268.467 251.473 265.617 256.39 263.358 258.367C263.343 258.383 263.326 258.397 263.308 258.409L263.238 257.946C263.238 257.946 260.524 261.153 254.518 260.973C254.518 260.973 250.904 263.172 256.264 263.29C261.623 263.409 268.467 263.113 268.467 263.113C268.467 263.113 273.247 256.295 277.25 257.185V262.351H278.476V257.102C279.044 256.751 279.531 256.297 279.906 255.765C280.281 255.234 280.537 254.637 280.658 254.01C280.763 253.364 280.686 252.704 280.435 252.094C280.184 251.485 279.768 250.947 279.227 250.534C278.984 250.328 278.789 250.077 278.654 249.798C278.519 249.518 278.448 249.216 278.444 248.909L278.4 248.945C278.4 248.841 278.371 248.734 278.359 248.625C278.007 245.957 277.567 240.453 279.122 236.381C281.254 230.797 281.9 223.019 280.348 218.39C279.847 216.91 279.436 215.405 279.116 213.881C279.078 213.689 279.043 213.505 279.011 213.333C280.072 213.467 281.123 213.665 282.156 213.926C285.751 214.854 293.616 215.025 300.33 214.975C300.346 215.147 300.365 215.328 300.387 215.509C300.507 216.765 300.757 218.008 301.135 219.219C301.977 221.591 302.364 232.044 302.364 232.044C302.364 232.044 303.45 240.64 302.858 244.137C302.541 246.082 302.224 248.035 302.044 249.997V250.036C302.044 250.036 300.264 254.778 298.962 257.354C298.93 257.419 298.896 257.484 298.864 257.546C298.517 257.576 298.175 257.647 297.847 257.757C297.847 257.757 296.102 261.017 294.363 261.556C292.624 262.096 293.201 263.871 297.138 263.219C301.075 262.567 307.02 262.034 307.02 262.034L307.276 258.708L308.486 257.291L308.169 260.608L309.459 260.371L309.287 256.337L311.267 254.019C311.267 254.019 313.658 252.027 310.105 248.109V248.195C310.067 248.139 310.032 248.079 309.991 248.023V248.005C309.401 247.152 308.933 245.56 309.791 242.735C311.343 237.631 312.246 232.999 312.246 232.999C312.246 232.999 315.711 220.589 311.546 214.717H311.729C311.303 213.891 311.001 213.013 310.833 212.109C310.812 212.002 310.793 211.893 310.776 211.78C313.858 211.614 316.883 211.092 319.35 209.966C319.341 209.954 317.855 180.504 316.626 175.815ZM277.5 155.275V155.335L276.867 155.364L277.5 155.275ZM275.328 155.557C275.223 155.578 275.126 155.622 275.043 155.684C274.77 156.045 274.599 156.464 274.545 156.902L273.557 156.695C273.557 156.695 272.863 156.556 271.866 156.399L271.394 155.954C272.692 155.853 274.042 155.705 275.328 155.557Z" fill="url(#paint1_linear_3311_1177)"/>
<path d="M308.024 256.378L307.647 260.578L308.911 260.341L308.721 255.786L308.024 256.378Z" fill="#072144"/>
<path d="M279.192 236.437C277.668 240.497 278.099 245.978 278.441 248.639C278.568 249.623 278.685 250.222 278.685 250.222C278.685 250.222 276.408 255.077 276.218 255.261C276.028 255.445 269.516 259.164 269.516 259.164L264.964 261.651C264.964 261.651 260.346 259.757 262.56 259.105C263.013 258.935 263.42 258.675 263.754 258.343C265.971 256.372 268.755 251.473 268.755 251.473C268.755 251.473 268.945 248.986 269.642 247.804C270.339 246.621 270.086 234.193 270.086 234.193L270.14 213.935V211.294L278.802 211.353C278.857 212.25 278.982 213.141 279.176 214.021C279.487 215.539 279.89 217.039 280.383 218.514C281.909 223.135 281.276 230.874 279.192 236.437Z" fill="#FFB0B1"/>
<path opacity="0.1" d="M278.685 250.222C278.685 250.222 276.408 255.077 276.218 255.261C276.028 255.445 269.516 259.165 269.516 259.165L264.964 261.651C264.964 261.651 260.346 259.757 262.56 259.105C263.013 258.935 263.42 258.675 263.754 258.344L263.951 259.639L265.468 259.58L278.454 248.646C278.568 249.624 278.685 250.222 278.685 250.222Z" fill="black"/>
<path d="M278.527 248.921L265.468 259.929L263.951 259.989L263.634 257.914C263.634 257.914 260.98 261.109 255.082 260.931C255.082 260.931 251.541 263.121 256.789 263.24C262.038 263.359 268.74 263.062 268.74 263.062C268.74 263.062 273.421 256.245 277.339 257.134V262.283H278.542V257.087C279.102 256.734 279.58 256.279 279.946 255.75C280.313 255.22 280.562 254.626 280.677 254.004C280.781 253.364 280.708 252.709 280.463 252.102C280.218 251.496 279.811 250.959 279.28 250.542C279.043 250.334 278.854 250.083 278.725 249.805C278.595 249.526 278.528 249.225 278.527 248.921Z" fill="#072144"/>
<path d="M309.227 242.768C308.385 245.584 308.844 247.169 309.421 248.02V248.038C310.16 249.088 310.674 250.263 310.934 251.497L310.985 251.764L305.043 259.87L301.819 261.055C301.819 261.055 296.634 259.399 297.581 258.924C297.819 258.809 298.189 258.192 298.614 257.342C299.881 254.778 301.629 250.047 301.629 250.047V250.009C301.813 248.056 302.104 246.108 302.427 244.17C303.007 240.681 301.942 232.118 301.942 232.118C301.942 232.118 301.562 221.706 300.739 219.338C300.367 218.134 300.12 216.899 300.001 215.651C299.83 214.169 299.792 212.948 299.792 212.948C299.792 212.948 303.206 208.502 309.465 213.303C309.965 213.686 310.406 214.133 310.773 214.631C315.096 220.387 311.615 233.067 311.615 233.067C311.615 233.067 310.744 237.679 309.227 242.768Z" fill="#FFB0B1"/>
<path opacity="0.1" d="M310.995 251.764L305.053 259.87L301.828 261.056C301.828 261.056 296.644 259.399 297.591 258.924C297.828 258.809 298.199 258.192 298.623 257.342C300.818 257.324 301.955 259.28 301.955 259.28L304.736 258.865C304.736 258.865 308.404 252.119 309.227 251.707C310.051 251.295 309.354 248.628 309.354 248.628V247.949C309.376 247.973 309.395 247.999 309.42 248.023V248.041C310.16 249.091 310.674 250.266 310.934 251.5L310.995 251.764Z" fill="black"/>
<path d="M302.145 259.455C302.145 259.455 300.562 256.734 297.527 257.739C297.527 257.739 295.82 260.999 294.113 261.527C292.406 262.054 292.976 263.833 296.834 263.184C300.691 262.535 306.507 261.998 306.507 261.998L306.76 258.681L310.681 254.007C310.681 254.007 313.019 252.024 309.541 248.121V248.8C309.541 248.8 310.238 251.467 309.414 251.879C308.591 252.291 304.936 259.04 304.936 259.04L302.145 259.455Z" fill="#072144"/>
<path opacity="0.1" d="M278.812 211.347C278.866 212.244 278.991 213.135 279.186 214.015C275.619 213.526 272.309 213.769 270.14 213.929V211.288L278.812 211.347Z" fill="black"/>
<path opacity="0.1" d="M311.124 215.369C311.124 215.369 306.057 215.6 300.013 215.648C299.842 214.166 299.804 212.945 299.804 212.945C299.804 212.945 303.219 208.499 309.477 213.3C309.978 213.683 310.418 214.13 310.785 214.628C310.884 214.881 310.997 215.128 311.124 215.369Z" fill="black"/>
<path d="M311.124 214.836C311.124 214.836 288.928 215.841 282.163 214.065C275.397 212.29 268.692 213.828 267.682 213.416C266.671 213.004 267.492 206.552 268.378 204.954C269.265 203.356 274.13 187.2 274.13 187.2L278.812 164.36L283.743 163.088L284.091 162.996L292.684 160.779L298.981 159.152C298.981 159.152 311.501 204.895 310.428 208.268C310.038 209.559 309.975 210.918 310.244 212.236C310.408 213.137 310.704 214.011 311.124 214.836Z" fill="#68A4F4"/>
<path d="M262.494 148.74C262.494 148.74 258.059 153.186 261.417 155.664C264.774 158.141 266.982 155.901 266.982 155.901L262.494 148.74Z" fill="#C7DAF5"/>
<path opacity="0.1" d="M262.494 148.74C262.494 148.74 258.059 153.186 261.417 155.664C264.774 158.141 266.982 155.901 266.982 155.901L262.494 148.74Z" fill="black"/>
<path d="M298.319 119.509C298.319 119.509 297.8 119.972 297.017 120.653C295.902 121.628 294.252 123.054 292.789 124.249C290.762 125.9 289.09 127.112 289.688 126.077C290.287 125.043 290.173 123.241 289.875 121.554C289.853 121.442 289.834 121.329 289.812 121.219C289.565 119.981 289.238 118.757 288.833 117.556C288.833 117.556 292.108 113.596 293.92 112.034C294.594 111.441 295.066 111.198 295.095 111.61C295.126 112.165 295.57 113.389 296.121 114.687C296.137 114.728 296.153 114.767 296.172 114.808C296.539 115.698 296.954 116.611 297.318 117.399C297.876 118.608 298.319 119.509 298.319 119.509Z" fill="#FFB0B1"/>
<path opacity="0.1" d="M296.172 114.808C295.864 116.357 295.117 117.801 294.009 118.987C292.902 120.174 291.474 121.061 289.875 121.554C289.623 120.201 289.275 118.866 288.833 117.556C288.833 117.556 295 110.102 295.095 111.61C295.117 112.182 295.598 113.451 296.172 114.808Z" fill="black"/>
<path opacity="0.1" d="M289.261 123.546L290.059 122.494C290.059 122.494 290.588 125.511 292.532 124.18C294.477 122.85 294.572 134.196 294.572 134.196L292.485 163.399L277.402 162.555L277.83 148.443L279.537 141.33L283.759 130.989L286.271 127.571L289.261 123.546Z" fill="black"/>
<path d="M294.572 134.376L292.672 160.782L292.472 163.58L284.063 163.109L283.746 163.091L277.412 162.735L277.839 148.621L279.546 141.508L283.768 131.166L286.28 127.749L289.27 123.709L290.068 122.66C290.068 122.66 290.597 125.677 292.542 124.346L292.583 124.32C294.483 123.193 294.572 134.376 294.572 134.376Z" fill="#68A4F4"/>
<path d="M279.759 139.036C279.759 139.036 279.002 140.518 277.481 140.278C275.961 140.037 275.964 145.613 275.964 145.613C275.964 145.613 274.954 146.502 274.257 145.731C273.56 144.961 271.723 147.566 271.723 147.566L260.213 148.04C260.213 148.04 265.335 150.23 264.331 156.858C264.331 156.858 281.719 155.85 282.289 154.312C282.859 152.774 279.759 139.036 279.759 139.036Z" fill="white"/>
<path opacity="0.03" d="M279.759 139.036C279.759 139.036 279.002 140.518 277.481 140.278C275.961 140.037 275.964 145.613 275.964 145.613C275.964 145.613 274.954 146.502 274.257 145.731C273.56 144.961 271.723 147.566 271.723 147.566L260.213 148.04C260.213 148.04 265.335 150.23 264.331 156.858C264.331 156.858 281.719 155.85 282.289 154.312C282.859 152.774 279.759 139.036 279.759 139.036Z" fill="black"/>
<path d="M246.309 151.523L249.343 153.947L274.32 158.858L271.223 155.9L246.309 151.523Z" fill="white"/>
<path d="M289.308 124.48C288.893 125.073 287.705 128.108 286.714 130.757C285.887 132.966 285.197 134.907 285.197 134.907C285.197 134.907 283.585 144.729 282.761 146.505C281.938 148.28 282.384 155.204 282.384 155.204L279.315 172.303C279.315 172.303 277.925 181.121 275.777 186.388C273.658 191.572 271.299 194.002 271.226 194.079C272.176 192.876 277.355 169.182 277.355 169.182L279.065 139.3C279.065 139.3 279.315 136.46 279.568 134.033C279.822 131.605 284.953 128.291 284.953 128.291L289.9 121.708C290.397 122.331 290.065 123.416 289.308 124.48Z" fill="white"/>
<path d="M276.408 162.884C276.408 162.884 269.123 162.587 265.595 158.622C262.066 154.656 273.75 157.039 273.75 157.039L276.788 157.691L276.408 162.884Z" fill="#FFB0B1"/>
<path opacity="0.1" d="M310.428 208.271C310.038 209.562 309.975 210.921 310.244 212.239C302.297 212.767 293.796 210.757 293.796 210.757C292.213 212.121 288.041 214.13 288.041 214.13L285.767 187.751C284.313 184.194 283.743 165.56 283.743 165.56C283.743 165.56 283.873 164.585 284.06 163.124C284.06 163.088 284.06 163.05 284.076 163.014C284.643 158.933 285.767 151.271 286.318 150.236C287.078 148.814 283.981 145.029 283.981 145.029L285.39 133.781L285.561 132.423C288.532 131.181 290.809 127.215 290.809 127.215L292.558 124.349C294.458 123.208 294.556 134.391 294.556 134.391L292.656 160.797L298.953 159.17C298.953 159.17 311.501 204.898 310.428 208.271Z" fill="black"/>
<path d="M318.583 210.093C309.921 214.119 294.176 210.39 294.176 210.39C292.592 211.753 288.421 213.763 288.421 213.763L286.144 187.384C284.693 183.827 284.123 165.193 284.123 165.193C284.123 165.193 285.954 151.289 286.714 149.869C286.936 149.454 286.828 148.838 286.565 148.174C285.273 145.014 284.797 141.612 285.178 138.247L285.786 133.413L285.954 132.059C288.928 130.814 291.205 126.848 291.205 126.848L292.789 124.252L295.703 119.468L297.084 117.203L297.318 117.402L299.108 118.919C299.108 118.919 299.868 119.512 301.008 120.401C303.488 122.358 307.773 125.802 309.984 127.909C311.929 129.765 312.543 136.982 312.721 142.415C312.838 145.992 312.768 148.796 312.768 148.796C310.808 151.816 315.936 176.064 315.936 176.064C317.13 180.75 318.583 210.093 318.583 210.093Z" fill="white"/>
<path opacity="0.03" d="M301.955 126.789C301.955 126.789 296.01 137.379 296.701 141.404C297.391 145.429 299.355 149.985 298.408 151.049C298.082 151.452 297.662 151.779 297.179 152.005C296.696 152.23 296.164 152.349 295.624 152.35C294.674 152.409 292.14 154.066 292.14 154.244C292.14 154.422 289.799 154.422 287.705 155.251C285.612 156.081 282.521 156.553 282.521 156.553C282.521 156.553 276.503 156.375 275.942 156.908C275.382 157.442 274.805 160.634 276.005 163.18C277.206 165.726 278.539 167.626 279.547 167.973C280.554 168.32 286.945 166.316 292.13 165.842C297.315 165.367 302.943 161.523 302.943 161.523C302.943 161.523 309.142 159.448 310.228 155.96C311.315 152.471 308.901 133.297 308.901 133.297C308.901 133.297 307.077 124.361 301.955 126.789Z" fill="black"/>
<path opacity="0.03" d="M301.195 125.899C301.195 125.899 295.25 136.493 295.947 140.515C296.643 144.537 298.601 149.095 297.651 150.162C297.326 150.566 296.907 150.893 296.424 151.119C295.941 151.345 295.409 151.463 294.87 151.463C293.92 151.523 291.386 153.18 291.386 153.357C291.386 153.535 289.045 153.535 286.951 154.362C284.858 155.189 281.767 155.663 281.767 155.663C281.767 155.663 275.749 155.486 275.191 156.019C274.634 156.553 274.051 159.748 275.255 162.291C276.458 164.834 277.788 166.737 278.796 167.083C279.803 167.43 286.195 165.427 291.379 164.955C296.564 164.484 302.193 160.634 302.193 160.634C302.193 160.634 308.388 158.559 309.462 155.074C310.535 151.588 308.134 132.408 308.134 132.408C308.134 132.408 306.316 123.475 301.195 125.899Z" fill="black"/>
<path d="M301.768 126.255C301.768 126.255 295.823 136.848 296.52 140.87C297.217 144.893 299.174 149.451 298.227 150.515C297.903 150.92 297.483 151.248 296.999 151.474C296.516 151.701 295.983 151.819 295.443 151.819C294.493 151.879 291.959 153.535 291.959 153.71C291.959 153.885 289.622 153.888 287.525 154.718C285.428 155.548 282.34 156.019 282.34 156.019C282.34 156.019 276.322 155.841 275.761 156.375C275.201 156.908 274.624 160.104 275.825 162.647C277.025 165.19 278.359 167.093 279.366 167.439C280.373 167.786 286.765 165.782 291.95 165.308C297.134 164.834 302.763 160.99 302.763 160.99C302.763 160.99 308.961 158.915 310.048 155.426C311.134 151.938 308.736 132.764 308.736 132.764C308.736 132.764 306.887 123.843 301.768 126.255Z" fill="white"/>
<path opacity="0.1" d="M301.638 154.668C301.638 154.668 296.887 153.778 298.541 155.26C300.194 156.742 300.185 158.041 302.208 157.981C304.232 157.922 301.638 154.668 301.638 154.668Z" fill="black"/>
<path opacity="0.1" d="M309.667 186.554C309.667 186.554 307.52 187.914 311.628 191.05C315.736 194.186 309.667 186.554 309.667 186.554Z" fill="black"/>
<path opacity="0.1" d="M305.569 197.737C305.569 197.914 304.809 204.257 307.653 205.843C310.497 207.429 305.569 197.737 305.569 197.737Z" fill="black"/>
<path d="M260.409 148.025C258.116 148.099 253.163 148.755 255.731 153.239C258.002 157.208 261.819 154.555 263.966 152.542C263.443 150.666 262.169 149.049 260.409 148.025Z" fill="#FFB0B1"/>
<path d="M263.995 152.509L264.092 152.415L263.995 152.509Z" fill="#FFB0B1"/>
<path opacity="0.1" d="M301.008 120.582C298.576 122.138 296.536 123.451 296.137 123.724C295.047 124.48 292.97 128.917 291.63 131.181C290.562 133.004 287.094 133.472 285.786 133.588L285.954 132.233C288.928 130.989 291.205 127.023 291.205 127.023L297.084 117.378L299.108 119.1C299.108 119.1 299.868 119.693 301.008 120.582Z" fill="black"/>
<path d="M301.008 120.404C298.576 121.96 296.536 123.273 296.137 123.549C295.047 124.302 292.97 128.739 291.63 131.003C290.562 132.826 287.094 133.294 285.786 133.41L285.954 132.055C288.928 130.811 291.205 126.845 291.205 126.845L297.084 117.2L299.108 118.916C299.108 118.916 299.868 119.503 301.008 120.404Z" fill="#DCE7FF"/>
<path d="M296.327 112.852C296.328 114.632 295.752 116.369 294.674 117.835C293.4 119.568 291.506 120.816 289.333 121.353C287.16 121.89 284.854 121.681 282.832 120.763C280.81 119.845 279.207 118.279 278.313 116.35C277.42 114.42 277.295 112.255 277.961 110.247C278.628 108.238 280.041 106.52 281.946 105.404C283.85 104.287 286.119 103.847 288.341 104.162C290.563 104.477 292.59 105.527 294.055 107.122C295.521 108.716 296.327 110.749 296.327 112.852Z" fill="#FFB0B1"/>
<path opacity="0.1" d="M312.721 142.417C311.435 141.677 310.387 140.624 309.69 139.371C309.161 138.392 308.809 137.263 307.907 136.57C307.093 135.947 306.006 135.796 304.993 135.517C301.661 134.596 298.867 131.75 298.763 128.502C298.712 126.972 299.222 125.446 298.991 123.931C298.859 123.074 298.495 122.263 297.933 121.575C297.654 121.246 297.348 120.938 297.017 120.653C296.574 120.262 296.108 119.883 295.703 119.468C295.448 119.211 295.224 118.927 295.038 118.623C294.887 118.374 294.765 118.111 294.674 117.837C294.04 116.024 294.617 113.872 293.92 112.037L293.882 111.936C293.619 111.284 293.084 110.632 292.339 110.582C291.595 110.531 290.958 111.109 290.249 111.367C288.763 111.907 287.161 110.988 285.922 110.051C284.684 109.115 283.287 108.045 281.713 108.252C280.671 108.391 279.847 109.055 278.888 109.399C278.671 109.478 278.447 109.538 278.219 109.58C279.032 107.684 280.524 106.113 282.44 105.135C284.356 104.157 286.575 103.835 288.718 104.222C290.861 104.61 292.792 105.683 294.181 107.259C295.569 108.834 296.328 110.813 296.327 112.855C296.328 113.472 296.259 114.087 296.121 114.69C296.137 114.731 296.153 114.77 296.172 114.811C296.539 115.7 296.954 116.613 297.318 117.402L299.108 118.919C299.108 118.919 299.868 119.512 301.008 120.401C303.488 122.357 307.774 125.802 309.984 127.909C311.929 129.77 312.537 136.985 312.721 142.417Z" fill="black"/>
<path d="M278.777 103.984C279.23 103.121 279.455 102.155 279.996 101.337C280.791 100.152 282.179 99.3928 283.604 98.9334C287.325 97.733 295.19 95.9902 297.54 98.9334C298.002 99.5262 298.386 100.184 299.025 100.593C299.513 100.904 300.102 101.038 300.638 101.272C302.136 101.93 303.092 103.364 303.602 104.829C304.112 106.293 304.264 107.864 304.638 109.372C305.116 111.308 305.956 113.143 306.792 114.965C307.777 117.117 308.822 119.349 310.722 120.87C313.316 122.944 313.89 125.882 316.297 128.158C319.147 130.861 319.055 135.322 317.586 138.864C317.393 139.329 317.174 139.815 317.25 140.31C317.326 140.805 317.719 141.256 318.089 141.65L319.648 143.295C315.961 144.128 311.79 142.326 310.073 139.163C309.544 138.185 309.193 137.059 308.287 136.362C307.476 135.74 306.386 135.591 305.376 135.313C302.044 134.388 299.25 131.54 299.146 128.291C299.095 126.765 299.605 125.238 299.374 123.727C299.245 122.864 298.88 122.047 298.313 121.356C297.442 120.292 296.127 119.577 295.418 118.392C294.218 116.409 295.13 113.833 294.265 111.705C293.999 111.053 293.467 110.401 292.723 110.351C291.978 110.3 291.342 110.878 290.629 111.136C289.147 111.675 287.544 110.76 286.306 109.82C285.067 108.88 283.67 107.813 282.093 108.024C281.051 108.16 280.231 108.824 279.271 109.171C278.562 109.426 277.124 109.654 276.503 109.094C275.192 107.965 278.229 105.039 278.777 103.984Z" fill="#072144"/>
<path opacity="0.1" d="M310.953 138.185C310.421 137.207 310.073 136.081 309.167 135.387C308.356 134.765 307.267 134.614 306.253 134.335C302.924 133.413 300.131 130.565 300.023 127.316C299.972 125.79 300.482 124.261 300.254 122.749C300.122 121.892 299.756 121.08 299.193 120.393C298.319 119.329 297.005 118.614 296.298 117.429C295.098 115.449 296.01 112.873 295.142 110.742C294.879 110.093 294.344 109.441 293.603 109.387C292.862 109.334 292.219 109.918 291.509 110.176C290.027 110.715 288.421 109.796 287.186 108.86C285.951 107.923 284.548 106.853 282.973 107.061C281.931 107.2 281.108 107.864 280.151 108.208C279.442 108.463 278.001 108.694 277.38 108.134C276.075 106.948 279.113 104.029 279.657 102.979C280.11 102.114 280.335 101.151 280.88 100.333C280.908 100.288 280.94 100.244 280.972 100.199C280.564 100.515 280.213 100.889 279.93 101.308C279.388 102.126 279.163 103.086 278.71 103.955C278.162 105.004 275.125 107.932 276.433 109.109C277.066 109.672 278.492 109.441 279.201 109.186C280.151 108.839 280.981 108.175 282.023 108.039C283.607 107.828 285.001 108.898 286.236 109.835C287.471 110.772 289.086 111.69 290.562 111.151C291.272 110.893 291.893 110.312 292.653 110.366C293.413 110.419 293.92 111.068 294.195 111.72C295.06 113.848 294.148 116.424 295.348 118.407C296.058 119.572 297.372 120.301 298.243 121.371C298.81 122.062 299.175 122.879 299.304 123.742C299.535 125.253 299.025 126.78 299.076 128.306C299.181 131.567 301.974 134.403 305.306 135.328C306.31 135.607 307.406 135.755 308.217 136.377C309.126 137.074 309.484 138.2 310.003 139.178C311.72 142.341 315.891 144.143 319.578 143.31L318.843 142.533C315.647 142.578 312.414 140.876 310.953 138.185Z" fill="black"/>
<path opacity="0.1" d="M289.118 124.658C288.703 125.25 287.515 128.285 286.524 130.935C285.596 130.597 284.753 128.443 284.753 128.443L289.701 121.857C290.207 122.509 289.875 123.591 289.118 124.658Z" fill="black"/>
<path d="M289.308 124.48C288.893 125.073 287.705 128.108 286.714 130.757C285.786 130.423 284.944 128.265 284.944 128.265L289.891 121.682C290.398 122.331 290.065 123.416 289.308 124.48Z" fill="#DCE7FF"/>
<path d="M260.543 154.759L257.8 146.665C257.767 146.57 257.755 146.47 257.764 146.371C257.773 146.272 257.803 146.175 257.851 146.087C257.9 145.999 257.967 145.92 258.049 145.856C258.13 145.792 258.224 145.743 258.326 145.713C258.53 145.654 258.751 145.672 258.941 145.764C259.13 145.856 259.274 146.015 259.339 146.205L262.082 154.291L261.81 155.984L260.543 154.759Z" fill="#BE8B87"/>
<path opacity="0.1" d="M258.059 145.954C258.264 145.893 258.486 145.911 258.676 146.003C258.867 146.095 259.011 146.254 259.076 146.446L261.819 154.531L261.613 155.8L261.813 155.995L262.085 154.303L259.326 146.217C259.261 146.027 259.118 145.868 258.928 145.776C258.738 145.684 258.517 145.666 258.313 145.725C258.141 145.778 257.993 145.882 257.892 146.022C257.945 145.995 258.002 145.972 258.059 145.954Z" fill="white"/>
<path d="M260.542 154.759L262.082 154.303L261.857 155.69L261.809 155.995L261.36 155.557L260.542 154.759Z" fill="#EFC8C4"/>
<path d="M261.36 155.557C261.387 155.525 261.42 155.499 261.458 155.48C261.48 155.466 261.506 155.459 261.532 155.459C261.559 155.459 261.585 155.466 261.607 155.48C261.628 155.504 261.647 155.531 261.661 155.56C261.682 155.592 261.71 155.62 261.744 155.641C261.778 155.662 261.817 155.676 261.857 155.681L261.81 155.978L261.36 155.557Z" fill="#727A9C"/>
<path d="M257.784 149.54C257.784 149.54 263.285 149.51 261.99 151.701C260.695 153.891 258.671 154.155 258.671 154.155L257.784 149.54Z" fill="#FFB0B1"/>
<path d="M223.567 59.2407H223.33C213.879 59.2407 205.52 63.9208 200.712 70.8268C195.904 63.9208 187.546 59.2407 178.094 59.2407H177.857C170.764 59.304 163.984 61.9842 158.991 66.6988C153.998 71.4135 151.195 77.7817 151.191 84.4194C151.191 92.6622 155.049 104.358 162.572 113.982C176.904 132.32 200.712 148.364 200.712 148.364C200.712 148.364 224.521 132.323 238.85 113.982C246.375 104.358 250.23 92.6622 250.23 84.4194C250.226 77.7822 247.423 71.4144 242.431 66.6999C237.439 61.9853 230.66 59.3048 223.567 59.2407ZM220.169 115.393C219.093 115.389 218.043 115.081 217.157 114.508C216.271 113.936 215.591 113.126 215.206 112.186H209.555C209.183 112.184 208.821 112.073 208.52 111.869C208.218 111.665 207.992 111.378 207.873 111.048L206.138 106.154L200.646 124.113C200.539 124.458 200.315 124.762 200.008 124.979C199.7 125.195 199.326 125.312 198.942 125.313H198.831C198.43 125.295 198.047 125.148 197.747 124.898C197.448 124.648 197.249 124.309 197.184 123.938L191.524 92.0812L187.387 110.932C187.293 111.29 187.072 111.608 186.762 111.835C186.451 112.063 186.068 112.186 185.674 112.186H177.714C177.476 112.195 177.238 112.159 177.014 112.08C176.791 112.001 176.587 111.881 176.414 111.726C176.242 111.572 176.105 111.386 176.011 111.181C175.917 110.975 175.869 110.754 175.869 110.53C175.869 110.307 175.917 110.086 176.011 109.88C176.105 109.675 176.242 109.489 176.414 109.334C176.587 109.18 176.791 109.059 177.014 108.98C177.238 108.901 177.476 108.866 177.714 108.875H184.28L190.14 83.5303C190.236 83.1555 190.468 82.8237 190.797 82.5915C191.126 82.3594 191.53 82.2412 191.942 82.2573C192.353 82.2734 192.746 82.4228 193.053 82.6798C193.359 82.9369 193.561 83.2857 193.624 83.6666L199.404 116.163L204.326 100.096C204.429 99.7574 204.645 99.4591 204.944 99.2454C205.242 99.0317 205.607 98.9141 205.983 98.9102H206.017C206.39 98.9103 206.752 99.0204 207.054 99.2248C207.355 99.4291 207.58 99.7174 207.696 100.048L210.835 108.884H215.136C215.442 108.014 215.998 107.241 216.744 106.649C217.49 106.057 218.396 105.669 219.363 105.528C220.33 105.388 221.319 105.5 222.222 105.852C223.124 106.204 223.905 106.783 224.479 107.525C225.052 108.266 225.396 109.142 225.471 110.054C225.546 110.967 225.351 111.881 224.906 112.696C224.461 113.512 223.784 114.196 222.95 114.674C222.116 115.152 221.157 115.405 220.178 115.405L220.169 115.393Z" fill="#68A4F4"/>
</g>
<path d="M154.41 17.854V34H150.477V27.353H144.359V34H140.426V17.854H144.359V24.179H150.477V17.854H154.41ZM157.617 27.56C157.617 26.2413 157.863 25.0837 158.353 24.087C158.859 23.0903 159.542 22.3237 160.4 21.787C161.259 21.2503 162.217 20.982 163.275 20.982C164.18 20.982 164.97 21.166 165.644 21.534C166.334 21.902 166.863 22.385 167.231 22.983V21.166H171.164V34H167.231V32.183C166.848 32.781 166.311 33.264 165.621 33.632C164.947 34 164.157 34.184 163.252 34.184C162.21 34.184 161.259 33.9157 160.4 33.379C159.542 32.827 158.859 32.0527 158.353 31.056C157.863 30.044 157.617 28.8787 157.617 27.56ZM167.231 27.583C167.231 26.6017 166.955 25.8273 166.403 25.26C165.867 24.6927 165.207 24.409 164.425 24.409C163.643 24.409 162.976 24.6927 162.424 25.26C161.888 25.812 161.619 26.5787 161.619 27.56C161.619 28.5413 161.888 29.3233 162.424 29.906C162.976 30.4733 163.643 30.757 164.425 30.757C165.207 30.757 165.867 30.4733 166.403 29.906C166.955 29.3387 167.231 28.5643 167.231 27.583ZM183.003 34L179.093 28.618V34H175.16V16.98H179.093V26.387L182.98 21.166H187.833L182.497 27.606L187.879 34H183.003ZM192.505 19.832C191.815 19.832 191.248 19.6327 190.803 19.234C190.374 18.82 190.159 18.314 190.159 17.716C190.159 17.1027 190.374 16.5967 190.803 16.198C191.248 15.784 191.815 15.577 192.505 15.577C193.18 15.577 193.732 15.784 194.161 16.198C194.606 16.5967 194.828 17.1027 194.828 17.716C194.828 18.314 194.606 18.82 194.161 19.234C193.732 19.6327 193.18 19.832 192.505 19.832ZM194.46 21.166V34H190.527V21.166H194.46ZM214.837 21.028C216.431 21.028 217.696 21.511 218.632 22.477C219.582 23.443 220.058 24.7847 220.058 26.502V34H216.148V27.031C216.148 26.203 215.925 25.5667 215.481 25.122C215.051 24.662 214.453 24.432 213.687 24.432C212.92 24.432 212.314 24.662 211.87 25.122C211.44 25.5667 211.226 26.203 211.226 27.031V34H207.316V27.031C207.316 26.203 207.093 25.5667 206.649 25.122C206.219 24.662 205.621 24.432 204.855 24.432C204.088 24.432 203.482 24.662 203.038 25.122C202.608 25.5667 202.394 26.203 202.394 27.031V34H198.461V21.166H202.394V22.776C202.792 22.2393 203.314 21.8177 203.958 21.511C204.602 21.189 205.33 21.028 206.143 21.028C207.109 21.028 207.967 21.235 208.719 21.649C209.485 22.063 210.083 22.6533 210.513 23.42C210.957 22.7147 211.563 22.1397 212.33 21.695C213.096 21.2503 213.932 21.028 214.837 21.028Z" fill="#424242"/>
<path d="M237.942 17.854V34H234.009V27.353H227.891V34H223.958V17.854H227.891V24.179H234.009V17.854H237.942ZM254.604 21.166V34H250.671V32.252C250.273 32.8193 249.728 33.2793 249.038 33.632C248.364 33.9693 247.612 34.138 246.784 34.138C245.803 34.138 244.937 33.9233 244.185 33.494C243.434 33.0493 242.851 32.413 242.437 31.585C242.023 30.757 241.816 29.7833 241.816 28.664V21.166H245.726V28.135C245.726 28.9937 245.949 29.6607 246.393 30.136C246.838 30.6113 247.436 30.849 248.187 30.849C248.954 30.849 249.56 30.6113 250.004 30.136C250.449 29.6607 250.671 28.9937 250.671 28.135V21.166H254.604ZM262.513 22.983C262.881 22.385 263.41 21.902 264.1 21.534C264.79 21.166 265.579 20.982 266.469 20.982C267.527 20.982 268.485 21.2503 269.344 21.787C270.202 22.3237 270.877 23.0903 271.368 24.087C271.874 25.0837 272.127 26.2413 272.127 27.56C272.127 28.8787 271.874 30.044 271.368 31.056C270.877 32.0527 270.202 32.827 269.344 33.379C268.485 33.9157 267.527 34.184 266.469 34.184C265.564 34.184 264.774 34.0077 264.1 33.655C263.425 33.287 262.896 32.804 262.513 32.206V34H258.58V16.98H262.513V22.983ZM268.125 27.56C268.125 26.5787 267.849 25.812 267.297 25.26C266.76 24.6927 266.093 24.409 265.296 24.409C264.514 24.409 263.847 24.6927 263.295 25.26C262.758 25.8273 262.49 26.6017 262.49 27.583C262.49 28.5643 262.758 29.3387 263.295 29.906C263.847 30.4733 264.514 30.757 265.296 30.757C266.078 30.757 266.745 30.4733 267.297 29.906C267.849 29.3233 268.125 28.5413 268.125 27.56Z" fill="#68A4F4"/>
<path d="M95.5987 21.6865C94.5395 22.6774 94.5178 24.298 95.5607 25.3044C96.6037 26.3108 98.2985 26.3314 99.3686 25.3405C99.4446 25.2683 99.5207 25.1857 99.5858 25.1134C100.509 29.2835 100.911 29.8409 101.492 29.8409C101.558 29.8409 101.628 29.8306 101.704 29.8203C102.508 29.7119 102.525 29.7119 103.155 19.6273C103.166 19.4208 103.182 19.2092 103.193 19.0028C103.204 19.137 103.22 19.2763 103.231 19.4002C103.997 26.9301 103.997 26.9301 104.567 27.1365C105.3 27.4101 105.675 26.7804 106.474 25.4024C106.685 25.0463 107.001 24.4941 107.202 24.2257C108.136 24.3238 110.694 24.5148 111.46 23.5703C111.612 23.3897 111.813 23.0903 112.031 22.7445C112.319 22.3162 112.916 21.413 113.291 21.0672C113.465 21.2685 113.682 21.604 113.856 21.8672C114.584 22.9716 115.404 24.2154 116.539 24.2412H116.577L122.498 24.2515H124.416V25.0567C124.416 28.3029 121.645 30.9247 118.239 30.9247H108.565V40.1319C108.565 43.3679 105.795 46 102.378 46H98.0431C94.6373 46 91.8669 43.3679 91.8669 40.1319V30.9299H82.1762C78.7703 30.9299 76 28.3081 76 25.0618V20.9433C76 17.6971 78.7703 15.0753 82.1762 15.0753H91.8669V5.86806C91.8669 2.63211 94.6373 0 98.0431 0H102.378C105.795 0 108.565 2.63211 108.565 5.86806V15.0753H118.245C121.651 15.0753 124.421 17.6971 124.421 20.9433V22.8942H122.504L116.615 22.8839C116.615 22.8839 116.604 22.8839 116.594 22.8839C116.219 22.8839 115.393 21.6246 115.078 21.1446C114.665 20.5253 114.345 20.0402 113.97 19.7821C113.742 19.617 113.443 19.5654 113.16 19.617C112.378 19.7615 111.71 20.7059 110.83 22.022C110.64 22.3213 110.466 22.5845 110.352 22.7187C109.999 22.9974 107.973 22.9716 107.098 22.8374C106.408 22.7394 106.066 23.3071 105.246 24.716C105.072 23.2916 104.855 21.1343 104.676 19.2763C103.893 11.5761 103.893 11.5761 103.204 11.4471C102.997 11.411 102.78 11.4574 102.617 11.5813C102.237 11.8548 102.215 11.8703 101.731 19.5447C101.596 21.6504 101.444 24.2051 101.291 26.1198C101.139 25.4953 100.96 24.7212 100.759 23.7612L100.732 23.6632C100.656 23.3019 100.439 23.0903 100.118 22.9716C100.02 22.5174 99.7868 22.0839 99.412 21.7278C98.3691 20.7163 96.6688 20.7008 95.5987 21.6865Z" fill="url(#paint2_linear_3311_1177)"/>
<defs>
<linearGradient id="paint0_linear_3311_1177" x1="112.861" y1="265.667" x2="112.861" y2="83.2838" gradientUnits="userSpaceOnUse">
<stop stop-color="#808080" stop-opacity="0.25"/>
<stop offset="0.54" stop-color="#808080" stop-opacity="0.12"/>
<stop offset="1" stop-color="#808080" stop-opacity="0.1"/>
</linearGradient>
<linearGradient id="paint1_linear_3311_1177" x1="70699.2" y1="137647" x2="70699.2" y2="44027.8" gradientUnits="userSpaceOnUse">
<stop stop-color="#808080" stop-opacity="0.25"/>
<stop offset="0.54" stop-color="#808080" stop-opacity="0.12"/>
<stop offset="1" stop-color="#808080" stop-opacity="0.1"/>
</linearGradient>
<linearGradient id="paint2_linear_3311_1177" x1="79.9302" y1="31.6366" x2="123.337" y2="11.1672" gradientUnits="userSpaceOnUse">
<stop offset="4.1024e-07" stop-color="#68A4F4" stop-opacity="0.88"/>
<stop offset="0.0934" stop-color="#68A4F4" stop-opacity="0.92"/>
<stop offset="0.6815" stop-color="#68A4F4" stop-opacity="0.93"/>
<stop offset="1" stop-color="#68A4F4"/>
</linearGradient>
<clipPath id="clip0_3311_1177">
<rect width="350" height="232" fill="white" transform="translate(0 36)"/>
</clipPath>
</defs>
</svg>